<?xml version="1.0" encoding="UTF-8"?>
<svg version="1.1" xmlns="http://www.w3.org/2000/svg" width="1024" height="1024">
<path d="M0 0 C-0.66 0.33 -1.32 0.66 -2 1 C-2.38865234 2.04607422 -2.38865234 2.04607422 -2.78515625 3.11328125 C-4.41350395 6.98257048 -6.8541952 9.9048632 -9.4375 13.1875 C-24.50229596 32.81960676 -34.92024951 50.74028079 -33 76 C-32.37512751 80.05974971 -31.47071582 84.02864042 -30.4230957 87.9987793 C-29.25478358 92.43940616 -28.68700989 96.3573134 -29 101 C-31.64247158 105.3240444 -35.62196745 105.84135355 -40.21875 107.10546875 C-49.42527974 110.06655767 -58.98344234 115.89528878 -64.375 124.08984375 C-68.64542244 132.77198937 -69.15729418 142.79391036 -69.55859375 152.30859375 C-70.11671706 155.71166417 -70.6491832 157.43176662 -73 160 C-79.91379836 162.02572819 -87.9761734 161.02578694 -95.09570312 160.78515625 C-103.74002786 160.64501244 -112.28224226 162.21960381 -119 168 C-124.13339527 173.66140164 -125.05568916 180.29669578 -126.12890625 187.609375 C-127.08489165 191.33043027 -127.91529314 192.75911694 -131 195 C-134.71113663 195.29453465 -137.67115148 195.2907566 -141.28515625 194.5 C-156.40382064 191.71555533 -169.34956333 195.71817694 -182.63671875 202.828125 C-185 204 -185 204 -187 204 C-184.42215154 206.64752004 -182.08351902 208.94432065 -179 211 C-179 211.66 -179 212.32 -179 213 C-178.278125 213.061875 -177.55625 213.12375 -176.8125 213.1875 C-174 214 -174 214 -171.73046875 216.296875 C-163.68676132 224.26003028 -152.76902087 228.28091167 -142 231 C-142.84615032 234.1730637 -143.45588583 236.45352524 -145.80078125 238.80859375 C-148.29820523 240.1615499 -150.38530244 240.63616861 -153.1875 241.0625 C-155.78239347 241.42115656 -155.78239347 241.42115656 -158 242 C-158.33 242.66 -158.66 243.32 -159 244 C-159.66 243.67 -160.32 243.34 -161 243 C-161.99 243.33 -162.98 243.66 -164 244 C-148.43413306 261.57611852 -133.01390917 273.60840655 -109.625 278.15625 C-108.75875 278.4346875 -107.8925 278.713125 -107 279 C-106 282 -106 282 -106.71484375 284.05078125 C-110.94992288 291.88500111 -116.72930209 296.61653267 -125 300 C-126.32 300 -127.64 300 -129 300 C-126.33346688 303.14785679 -122.94524588 304.7673599 -119.3125 306.5625 C-118.72533203 306.86607422 -118.13816406 307.16964844 -117.53320312 307.48242188 C-110.02410258 311.23288668 -103.09601916 312.3196453 -94.75 312.1875 C-93.56664062 312.1865332 -93.56664062 312.1865332 -92.359375 312.18554688 C-83.07513888 312.11497413 -74.85994409 309.0849364 -67.6484375 303.0234375 C-52.59288632 287.03781366 -49.46423146 263.09532016 -46.4765625 242.26708984 C-45.66606966 236.71072963 -44.7668903 231.16876731 -43.875 225.625 C-43.71628418 224.62186768 -43.55756836 223.61873535 -43.39404297 222.58520508 C-43.24080566 221.62122803 -43.08756836 220.65725098 -42.9296875 219.6640625 C-42.70841187 218.26003174 -42.70841187 218.26003174 -42.48266602 216.82763672 C-42.15105773 214.88495227 -41.77944375 212.94880532 -41.37475586 211.02001953 C-39.86146502 204.19299437 -39.86146502 204.19299437 -41.8125 197.625 C-46.86077686 187.32169092 -45.5121691 176.68229544 -42 166 C-39.04678117 159.90956117 -34.86799959 155.62507395 -29.63671875 151.41015625 C-27.87868879 150.07879927 -27.87868879 150.07879927 -27 148 C-26.34 148 -25.68 148 -25 148 C-24.6596875 146.9171875 -24.6596875 146.9171875 -24.3125 145.8125 C-23 143 -23 143 -20.69921875 140.74609375 C-17.32468354 137.3129559 -14.91916668 133.54172853 -12.39453125 129.46484375 C-10.5368048 126.62936654 -9.50576008 125.16195688 -6.21875 124.109375 C-5.4865625 124.07328125 -4.754375 124.0371875 -4 124 C5.70969873 134.05647369 6.34932363 150.23632995 6.3125 163.375 C6.32861328 164.51710938 6.34472656 165.65921875 6.36132812 166.8359375 C6.36854801 179.54294258 3.95870211 192.53645087 -4.9921875 202.13671875 C-7.83967632 204.69945869 -10.58138782 206.76842731 -13.9375 208.625 C-16.16794412 209.82443648 -16.16794412 209.82443648 -16.8125 212.125 C-17.21198363 218.25041568 -17.13234398 223.99379422 -15.93188477 230.02099609 C-9.56933861 262.85878379 -11.85249477 304.64125018 -30.18359375 333.4296875 C-33.26907531 337.7958098 -36.48908122 341.96737842 -40 346 C-40.77730469 346.92039062 -40.77730469 346.92039062 -41.5703125 347.859375 C-53.35060785 360.76442217 -70.08499294 366.71833887 -87 369 C-87.97138916 369.14115234 -87.97138916 369.14115234 -88.96240234 369.28515625 C-97.52394542 370.51798724 -105.3827141 371.36782316 -114 370 C-105.58502836 371.71672593 -97.45679359 372.29277121 -88.8768959 372.30496025 C-86.7653972 372.30869077 -84.65434099 372.32558747 -82.54293823 372.34571838 C-76.55019347 372.40054624 -70.55739155 372.43190924 -64.56445312 372.45629883 C-60.87407867 372.47220825 -57.1840345 372.50243762 -53.49383163 372.54106331 C-52.09770085 372.55265713 -50.7015111 372.55864317 -49.30533218 372.55874443 C-47.35601428 372.5589374 -45.4067286 372.57876563 -43.45751953 372.59936523 C-42.35231964 372.60443588 -41.24711975 372.60950653 -40.10842896 372.61473083 C-35.57563916 373.17654008 -32.22759221 374.77240779 -29 378 C-29 382.0586092 -29.69421126 383.66284832 -32.4375 386.6875 C-39.69575932 392.06258962 -48.64232521 392.44047745 -57.33889771 392.39872742 C-58.43775043 392.40537424 -59.53660316 392.41202107 -60.66875446 392.41886932 C-64.32760534 392.43742804 -67.98612715 392.43489876 -71.64501953 392.43237305 C-74.27701691 392.44139455 -76.90898536 392.45159241 -79.54096985 392.46325684 C-85.19552341 392.48598347 -90.85001562 392.49791765 -96.50461197 392.50238609 C-104.68005078 392.5088624 -112.85537894 392.5318257 -121.03077303 392.55872939 C-134.29686694 392.60194164 -147.56295618 392.6319401 -160.82910156 392.65356445 C-173.71096085 392.67459084 -186.59278194 392.7018804 -199.47460938 392.73754883 C-200.66696025 392.74084707 -200.66696025 392.74084707 -201.88339902 392.74421193 C-205.87144 392.755282 -209.85948061 392.76647473 -213.84752107 392.77772844 C-246.89831558 392.87083475 -279.94912411 392.94246918 -313 393 C-315.06298828 389.24191284 -315.06298828 389.24191284 -314.49609375 387.06469727 C-314.14675781 386.40526123 -313.79742187 385.7458252 -313.4375 385.06640625 C-313.05207031 384.33486328 -312.66664063 383.60332031 -312.26953125 382.84960938 C-311.64111328 381.71749023 -311.64111328 381.71749023 -311 380.5625 C-310.61199219 379.81162109 -310.22398437 379.06074219 -309.82421875 378.28710938 C-306.52404577 372.17587699 -303.30717512 368.28891072 -296.65234375 365.6953125 C-292.53478973 364.9114359 -288.73695402 364.77569917 -284.5625 364.875 C-283.83095703 364.88402344 -283.09941406 364.89304687 -282.34570312 364.90234375 C-280.56365702 364.92563847 -278.78178241 364.9614981 -277 365 C-277.64057711 361.04079723 -278.28834808 357.08280513 -278.9375 353.125 C-279.21110352 351.43310547 -279.21110352 351.43310547 -279.49023438 349.70703125 C-279.75610352 348.09248047 -279.75610352 348.09248047 -280.02734375 346.4453125 C-280.18968506 345.45031738 -280.35202637 344.45532227 -280.51928711 343.43017578 C-280.88767373 341.00369478 -280.88767373 341.00369478 -282 339 C-282.43225449 336.34243535 -282.69779519 333.67667115 -283 331 C-283.99 330.67 -284.98 330.34 -286 330 C-286 329.34 -286 328.68 -286 328 C-287.34309577 326.20920564 -288.75030494 324.46619377 -290.1875 322.75 C-291.01507813 321.75355469 -291.84265625 320.75710938 -292.6953125 319.73046875 C-294.30159738 317.82742955 -295.92543939 315.93913046 -297.5625 314.0625 C-313 294.66666667 -313 294.66666667 -313 285 C-313.99 284.67 -314.98 284.34 -316 284 C-315.67 283.67 -315.34 283.34 -315 283 C-315.57231883 280.49685817 -316.20075234 278.03827054 -316.875 275.5625 C-318.4848963 269.35934269 -319.76230717 263.42761017 -320 257 C-320.0515625 255.94683594 -320.103125 254.89367187 -320.15625 253.80859375 C-320.84282423 228.20509646 -310.26204194 208.98930479 -293.8359375 190.2734375 C-291.47100802 187.57088425 -289.23762718 184.79650996 -287.0625 181.9375 C-284.58678902 178.69037183 -281.92868044 175.85358607 -279 173 C-275.17566151 168.90318955 -272.42606151 165.09472917 -270 160 C-269.34 159.67 -268.68 159.34 -268 159 C-266.2942673 153.38111581 -265.51353816 147.83811805 -265 142 C-265.66 141.67 -266.32 141.34 -267 141 C-267.34342449 139.66923011 -267.67619874 138.33568021 -268 137 C-271.12838854 133.87161146 -274.69962903 134.04666938 -279 134 C-282.00989186 134.41099196 -284.84236336 135.19499717 -287.75 136.0625 C-288.55203857 136.28711914 -289.35407715 136.51173828 -290.18041992 136.74316406 C-292.79202903 137.47877191 -295.39599162 138.23795504 -298 139 C-300.84400184 139.81952482 -303.68886033 140.63598956 -306.53417969 141.45092773 C-308.3475638 141.97247485 -310.1594965 142.49910288 -311.96972656 143.03149414 C-322.49725867 146.10015341 -332.86499744 147.8637489 -343.10546875 143 C-348.71084262 139.80293873 -352.69791253 135.80610183 -354.8125 129.625 C-354.9053125 128.325625 -354.9053125 128.325625 -355 127 C-355.05027344 126.35417969 -355.10054688 125.70835937 -355.15234375 125.04296875 C-355.98634186 105.99445193 -341.14065987 89.57959434 -329.39453125 75.984375 C-323.34464012 68.96837722 -318.60992275 61.73385519 -314.00537109 53.74267578 C-308.89491641 44.88438887 -303.04186501 37.18430331 -296.31567383 29.52539062 C-294.97810934 27.97462 -293.69534081 26.38725454 -292.41015625 24.79296875 C-288.59327458 20.36984007 -284.56032863 17.4431338 -278.75 16.4375 C-275.34215945 17.13455829 -274.0927359 18.26334536 -272 21 C-272 21.66 -272 22.32 -272 23 C-270.53977837 22.04454634 -269.08188532 21.08553322 -267.625 20.125 C-266.81289063 19.59132812 -266.00078125 19.05765625 -265.1640625 18.5078125 C-262.92405904 17.04134945 -262.92405904 17.04134945 -261 15 C-259.88475237 13.98913516 -258.75869747 12.9901288 -257.625 12 C-257.03976562 11.484375 -256.45453125 10.96875 -255.8515625 10.4375 C-251.85805139 7.33705256 -249.05616987 6.7701741 -244 7 C-240.04452802 13.96163068 -240.77452728 20.70420718 -242.546875 28.36328125 C-242.69640625 28.90339844 -242.8459375 29.44351563 -243 30 C-242.01257813 29.3503125 -241.02515625 28.700625 -240.0078125 28.03125 C-238.71369707 27.18726167 -237.41941771 26.34352465 -236.125 25.5 C-235.47402344 25.07074219 -234.82304687 24.64148438 -234.15234375 24.19921875 C-229.2265625 21 -229.2265625 21 -227 21 C-226.67 20.34 -226.34 19.68 -226 19 C-223.95805374 17.6994925 -221.92411389 16.48983868 -219.8125 15.3125 C-218.87833252 14.78837524 -218.87833252 14.78837524 -217.92529297 14.25366211 C-215.955954 13.15823894 -213.97963103 12.07670121 -212 11 C-211.37174316 10.65646484 -210.74348633 10.31292969 -210.09619141 9.95898438 C-197.52014655 3.15040293 -197.52014655 3.15040293 -190 3 C-190.53885893 7.44232037 -191.62303121 10.61822141 -193.84375 14.4921875 C-194.42672852 15.51973145 -195.00970703 16.54727539 -195.61035156 17.60595703 C-196.23393555 18.68474121 -196.85751953 19.76352539 -197.5 20.875 C-198.44697754 22.54151611 -198.44697754 22.54151611 -199.41308594 24.24169922 C-201.76349655 28.37499397 -204.13251325 32.49732891 -206.50976562 36.61523438 C-207.37682872 38.11722356 -208.24160891 39.62053421 -209.10351562 41.12548828 C-209.83965941 42.40935064 -210.58259193 43.68935757 -211.33398438 44.96435547 C-213.60622548 48.92068882 -214.90507309 52.60911963 -216 57 C-215.34 57 -214.68 57 -214 57 C-214 56.34 -214 55.68 -214 55 C-210.91968584 53.9905304 -207.8353041 52.99410379 -204.75 52 C-203.87730469 51.71382813 -203.00460937 51.42765625 -202.10546875 51.1328125 C-201.26113281 50.86210937 -200.41679687 50.59140625 -199.546875 50.3125 C-198.77182617 50.06113281 -197.99677734 49.80976563 -197.19824219 49.55078125 C-195 49 -195 49 -191 49 C-191 48.34 -191 47.68 -191 47 C-189.54054712 47.08708669 -188.08234132 47.19526907 -186.625 47.3125 C-185.40683594 47.39951172 -185.40683594 47.39951172 -184.1640625 47.48828125 C-182 48 -182 48 -180 51 C-183.16193113 55.39817487 -186.70128512 58.22644907 -191.0625 61.3125 C-192.04972046 62.03143433 -192.04972046 62.03143433 -193.05688477 62.76489258 C-196.13211667 64.99739087 -199.22435019 67.16911685 -202.4296875 69.2109375 C-203.42226563 69.86320312 -204.41484375 70.51546875 -205.4375 71.1875 C-206.32308594 71.73792969 -207.20867187 72.28835938 -208.12109375 72.85546875 C-210.43699923 75.49877875 -210.4852884 77.34856896 -210.28100586 80.79907227 C-209.80085543 84.55976392 -208.97981076 88.1994088 -208.0625 91.875 C-205.40994152 102.61645588 -204.85281171 112.95757772 -204.90234375 124.0078125 C-204.90446617 125.81776199 -204.90446617 125.81776199 -204.90663147 127.66427612 C-204.91218918 131.48454359 -204.92473372 135.30475052 -204.9375 139.125 C-204.94252047 141.72916581 -204.94708242 144.33333256 -204.95117188 146.9375 C-204.96214473 153.29168701 -204.97884026 159.64583918 -205 166 C-199.32769567 159.9152407 -193.83495608 153.87373448 -189.125 147 C-188.38817993 145.94147827 -188.38817993 145.94147827 -187.63647461 144.86157227 C-182.78308831 137.81981156 -178.21160753 130.59856114 -173.69140625 123.33984375 C-173.2442627 122.62296387 -172.79711914 121.90608398 -172.33642578 121.16748047 C-171.41576621 119.6743099 -170.50862844 118.17274546 -169.61279297 116.66455078 C-168.95174561 115.56409424 -168.95174561 115.56409424 -168.27734375 114.44140625 C-167.88667725 113.77955322 -167.49601074 113.1177002 -167.09350586 112.43579102 C-166.73264893 111.96197998 -166.37179199 111.48816895 -166 111 C-165.34 111 -164.68 111 -164 111 C-163.72414063 110.41605469 -163.44828125 109.83210938 -163.1640625 109.23046875 C-159.39223472 102.00324169 -153.45143385 95.97720665 -148 90 C-148.33 89.34 -148.66 88.68 -149 88 C-147.96939453 87.44892578 -147.96939453 87.44892578 -146.91796875 86.88671875 C-143.31025214 84.55401845 -140.4023865 81.77977533 -137.3125 78.8125 C-130.97516633 72.82756288 -124.39683083 67.34321238 -117.45703125 62.06640625 C-116.24080078 61.13634766 -116.24080078 61.13634766 -115 60.1875 C-114.278125 59.64480469 -113.55625 59.10210937 -112.8125 58.54296875 C-110.76248395 56.94055891 -110.76248395 56.94055891 -109 54 C-108.34 54 -107.68 54 -107 54 C-105.47044545 53.12528599 -103.97539207 52.18982777 -102.5 51.2265625 C-101.1696875 50.3603125 -101.1696875 50.3603125 -99.8125 49.4765625 C-98.884375 48.86554688 -97.95625 48.25453125 -97 47.625 C-96.071875 47.02171875 -95.14375 46.4184375 -94.1875 45.796875 C-89.34439337 42.71192639 -89.34439337 42.71192639 -85 39 C-83.35161333 37.99036317 -81.68076329 37.01726693 -80 36.0625 C-75.49758338 33.47280452 -71.05131783 30.81531156 -66.63378906 28.08349609 C-59.58381186 23.72640902 -52.48069453 19.48862906 -45.25 15.4375 C-44.14277588 14.81137817 -44.14277588 14.81137817 -43.01318359 14.17260742 C-39.07017253 11.98703458 -35.2888772 10.42743306 -31 9 C-30.67 8.34 -30.34 7.68 -30 7 C-27.50862809 5.90854183 -25.05219459 4.92679694 -22.5 4 C-21.77256592 3.7330835 -21.04513184 3.46616699 -20.2956543 3.19116211 C-6.03234647 -1.94591822 -6.03234647 -1.94591822 0 0 Z M-303.0625 90.25 C-303.68705078 90.55035156 -304.31160156 90.85070312 -304.95507812 91.16015625 C-308.51143297 92.94402688 -311.07176796 94.4694343 -313 98 C-313.56327743 100.11818257 -313.56327743 100.11818257 -313.6875 102.25 C-313.790625 103.4875 -313.89375 104.725 -314 106 C-305.2630466 104.66302848 -297.42700801 98.85429452 -292 92 C-291.67 91.01 -291.34 90.02 -291 89 C-291.33 88.34 -291.66 87.68 -292 87 C-296.45813818 87 -299.20344748 88.28641149 -303.0625 90.25 Z M-216 344 C-216.83806616 346.93622464 -217.67062444 349.87382067 -218.5 352.8125 C-218.73847656 353.64587891 -218.97695313 354.47925781 -219.22265625 355.33789062 C-219.44824219 356.14033203 -219.67382812 356.94277344 -219.90625 357.76953125 C-220.22045898 358.87711792 -220.22045898 358.87711792 -220.54101562 360.00708008 C-221.11221613 362.14639637 -221.11221613 362.14639637 -221 365 C-211.1 365 -201.2 365 -191 365 C-191.99 364.67 -192.98 364.34 -194 364 C-194 363.34 -194 362.68 -194 362 C-195.59726539 360.72815878 -197.25586895 359.5329956 -198.9375 358.375 C-205.06283567 354.03819903 -210.69302507 349.30697493 -216 344 Z " fill="#010101" transform="translate(686,217)"/>
<path d="M0 0 C2.4280972 0.05585509 4.85562103 0.08404246 7.28417969 0.11206055 C18.32957513 0.32397679 27.63340442 1.66253042 36.53417969 8.86791992 C41.69584613 15.32000298 43.01742379 21.92697292 42.85058594 30.02416992 C42.02732348 37.42336834 38.81817852 43.70680478 33.53417969 48.86791992 C31.25366146 50.38826541 28.98412854 51.61892639 26.53417969 52.86791992 C34.04811636 73.03690783 45.86323339 91.16380839 60.53417969 106.86791992 C61.55898438 106.51858398 62.58378906 106.16924805 63.63964844 105.80932617 C65.00027106 105.34952956 66.3609512 104.88990312 67.72167969 104.43041992 C68.39521484 104.20032227 69.06875 103.97022461 69.76269531 103.7331543 C75.19334492 101.90527711 79.63200723 100.53777735 85.34667969 101.30541992 C86.136875 101.40725586 86.92707031 101.5090918 87.74121094 101.61401367 C88.62873047 101.73969727 88.62873047 101.73969727 89.53417969 101.86791992 C89.53417969 102.52791992 89.53417969 103.18791992 89.53417969 103.86791992 C90.29730469 104.09479492 91.06042969 104.32166992 91.84667969 104.55541992 C95.2185769 106.20216042 96.08122352 107.42670794 97.53417969 110.86791992 C98.11171572 114.33313613 98.21816036 116.650284 96.46777344 119.76635742 C91.79496335 125.80153993 86.30713778 127.57012099 78.97167969 128.68041992 C69.87956279 129.39170798 60.93634698 124.42116189 53.49121094 119.52416992 C51.44467214 118.61018367 51.44467214 118.61018367 49.08886719 119.77416992 C48.20457031 120.30010742 47.32027344 120.82604492 46.40917969 121.36791992 C45.44882812 121.92737305 44.48847656 122.48682617 43.49902344 123.06323242 C42.520625 123.6587793 41.54222656 124.25432617 40.53417969 124.86791992 C38.6800633 125.99300279 36.82589999 127.11800833 34.97167969 128.24291992 C34.16601562 128.7456543 33.36035156 129.24838867 32.53027344 129.76635742 C30.53417969 130.86791992 30.53417969 130.86791992 28.53417969 130.86791992 C28.20417969 131.85791992 27.87417969 132.84791992 27.53417969 133.86791992 C28.19417969 134.19791992 28.85417969 134.52791992 29.53417969 134.86791992 C29.53417969 135.52791992 29.53417969 136.18791992 29.53417969 136.86791992 C30.19417969 136.86791992 30.85417969 136.86791992 31.53417969 136.86791992 C32.90900676 138.50052707 34.24065635 140.17017055 35.53417969 141.86791992 C36.19417969 142.52791992 36.85417969 143.18791992 37.53417969 143.86791992 C41.51036994 151.12017391 42.04136928 156.90323686 39.79199219 164.83276367 C37.92973374 169.32647427 35.41214836 172.89898046 31.53417969 175.86791992 C30.2065361 176.22323864 28.87378241 176.56074987 27.53417969 176.86791992 C27.20417969 177.52791992 26.87417969 178.18791992 26.53417969 178.86791992 C20.55310341 180.93036002 15.44445267 181.36842003 9.53417969 178.86791992 C3.63676068 175.85903267 0.85797738 171.38400971 -2.46582031 165.86791992 C-1.80582031 165.53791992 -1.14582031 165.20791992 -0.46582031 164.86791992 C-0.28019531 163.72323242 -0.28019531 163.72323242 -0.09082031 162.55541992 C0.7024181 159.14449477 1.75497645 157.97110075 4.53417969 155.86791992 C8.19201788 154.70052475 9.79279793 154.51407863 13.28417969 156.18041992 C15.75680799 158.03489115 17.27960778 159.21330644 18.40917969 162.11791992 C18.58870582 166.0674948 16.92422829 167.81396893 14.53417969 170.86791992 C12.78417969 172.74291992 12.78417969 172.74291992 11.53417969 173.86791992 C15.94332752 174.97020688 20.0180037 174.94446528 24.53417969 174.86791992 C24.86417969 174.20791992 25.19417969 173.54791992 25.53417969 172.86791992 C26.52417969 172.53791992 27.51417969 172.20791992 28.53417969 171.86791992 C33.93867606 165.94870961 35.01082979 161.92513235 34.94433594 154.07885742 C34.08614892 147.36047909 30.24523172 142.06606415 25.15917969 137.74291992 C24.29292969 137.12416992 23.42667969 136.50541992 22.53417969 135.86791992 C18.80803816 136.98646578 18.80803816 136.98646578 16.53417969 139.86791992 C14.92056812 140.84018678 13.26690886 141.746496 11.59667969 142.61791992 C7.88091855 144.58564947 4.27657658 146.62396507 0.72167969 148.86791992 C-12.57374278 156.93862366 -28.88715398 163.15636541 -44.62207031 160.29370117 C-46.96481977 159.58743112 -49.20447141 158.79825083 -51.46582031 157.86791992 C-52.45582031 157.53791992 -53.44582031 157.20791992 -54.46582031 156.86791992 C-54.46582031 156.20791992 -54.46582031 155.54791992 -54.46582031 154.86791992 C-55.45582031 154.86791992 -56.44582031 154.86791992 -57.46582031 154.86791992 C-58.69210771 147.51019552 -59.82136269 140.64033376 -56.04394531 133.88354492 C-50.18386032 126.39888191 -41.41775319 122.34097188 -32.46582031 119.86791992 C-31.66273438 119.62041992 -30.85964844 119.37291992 -30.03222656 119.11791992 C-13.90415814 115.09219302 5.33656469 120.0994136 19.53417969 127.86791992 C20.19417969 128.19791992 20.85417969 128.52791992 21.53417969 128.86791992 C27.22766728 126.80085755 32.29327397 123.79101324 37.47167969 120.68041992 C38.25091797 120.21700195 39.03015625 119.75358398 39.83300781 119.27612305 C41.73570359 118.14384396 43.63598897 117.00772957 45.53417969 115.86791992 C44.42459565 112.53916782 43.60873465 111.85302293 40.97167969 109.68041992 C37.891951 107.06292899 34.92085076 104.38548961 32.03417969 101.55541992 C31.36386719 100.89928711 30.69355469 100.2431543 30.00292969 99.56713867 C28.53417969 97.86791992 28.53417969 97.86791992 28.53417969 95.86791992 C27.87417969 95.86791992 27.21417969 95.86791992 26.53417969 95.86791992 C24.87792969 93.85620117 24.87792969 93.85620117 23.03417969 91.18041992 C22.42574219 90.31030273 21.81730469 89.44018555 21.19042969 88.54370117 C19.53417969 85.86791992 19.53417969 85.86791992 18.44042969 83.09838867 C17.75279186 80.70210072 17.75279186 80.70210072 15.53417969 79.86791992 C14.46386719 77.68823242 14.46386719 77.68823242 13.40917969 74.99291992 C13.05597656 74.10862305 12.70277344 73.22432617 12.33886719 72.31323242 C11.53417969 69.86791992 11.53417969 69.86791992 11.53417969 66.86791992 C10.04917969 67.36291992 10.04917969 67.36291992 8.53417969 67.86791992 C8.20417969 67.20791992 7.87417969 66.54791992 7.53417969 65.86791992 C8.19417969 65.53791992 8.85417969 65.20791992 9.53417969 64.86791992 C9.53417969 64.20791992 9.53417969 63.54791992 9.53417969 62.86791992 C8.87417969 62.53791992 8.21417969 62.20791992 7.53417969 61.86791992 C6.81258544 60.22428859 6.14066548 58.55741606 5.53417969 56.86791992 C3.55417969 56.86791992 1.57417969 56.86791992 -0.46582031 56.86791992 C-1.40506133 63.55820595 -1.51592621 70.07594463 -1.15332031 76.80541992 C-1.11859619 77.53881592 -1.08387207 78.27221191 -1.0480957 79.02783203 C-0.73800112 84.26741171 -0.73800112 84.26741171 1.53417969 88.86791992 C3.23145194 90.18001997 3.23145194 90.18001997 5.15917969 91.11791992 C6.27292969 91.69541992 7.38667969 92.27291992 8.53417969 92.86791992 C6.53417969 94.86791992 6.53417969 94.86791992 2.63525391 95.0949707 C0.95309176 95.09465333 -0.72909051 95.08331388 -2.41113281 95.06323242 C-3.29614471 95.06040253 -4.18115662 95.05757263 -5.09298706 95.05465698 C-7.92573444 95.04344233 -10.75816815 95.01833563 -13.59082031 94.99291992 C-15.5087845 94.98289177 -17.42675364 94.97376564 -19.34472656 94.96557617 C-24.05187907 94.94349881 -28.75879647 94.90896037 -33.46582031 94.86791992 C-32.46582031 91.86791992 -32.46582031 91.86791992 -29.02832031 90.11791992 C-25.98229889 88.46383042 -25.54119404 88.03505298 -24.02832031 84.68041992 C-23.48903086 81.02523584 -23.34282604 77.66121461 -23.49316406 73.98120117 C-23.46482497 71.79099451 -23.07632665 69.96446494 -22.46582031 67.86791992 C-23.45582031 67.37291992 -23.45582031 67.37291992 -24.46582031 66.86791992 C-23.80582031 66.86791992 -23.14582031 66.86791992 -22.46582031 66.86791992 C-22.57410156 65.66135742 -22.57410156 65.66135742 -22.68457031 64.43041992 C-23.43171546 54.96658141 -23.54018254 45.57545053 -23.42871094 36.08276367 C-23.41614258 34.59583008 -23.41614258 34.59583008 -23.40332031 33.07885742 C-23.39171875 32.19504395 -23.38011719 31.31123047 -23.36816406 30.40063477 C-23.46870453 27.79311763 -23.88617776 25.40842021 -24.46582031 22.86791992 C-24.13582031 22.86791992 -23.80582031 22.86791992 -23.46582031 22.86791992 C-23.55316004 20.78381334 -23.66134309 18.70057323 -23.77832031 16.61791992 C-23.83632813 15.45776367 -23.89433594 14.29760742 -23.95410156 13.10229492 C-24.48980567 9.71631782 -25.09339299 8.28597085 -27.46582031 5.86791992 C-30.05080543 4.59944307 -30.05080543 4.59944307 -32.46582031 3.86791992 C-32.46582031 2.87791992 -32.46582031 1.88791992 -32.46582031 0.86791992 C-21.61204476 0.00563426 -10.8825159 -0.27173017 0 0 Z M-2.46582031 5.86791992 C-2.4905208 11.65201505 -2.50868055 17.43607954 -2.52075195 23.22021484 C-2.52578381 25.18831924 -2.53260989 27.1564199 -2.54125977 29.12451172 C-2.55337549 31.95175093 -2.55906007 34.77894076 -2.56347656 37.60620117 C-2.56863785 38.48754227 -2.57379913 39.36888336 -2.57911682 40.27693176 C-2.57919235 41.097556 -2.57926788 41.91818024 -2.5793457 42.76367188 C-2.58156631 43.48537064 -2.58378693 44.2070694 -2.58607483 44.95063782 C-2.5340763 47.09018793 -2.5340763 47.09018793 -1.46582031 49.86791992 C5.82901218 50.29736043 5.82901218 50.29736043 12.53417969 47.86791992 C18.31857742 42.08352219 19.61740097 36.69481424 19.84667969 28.55541992 C19.72100309 22.1311279 19.3910957 15.33303094 15.13964844 10.17651367 C10.91378763 6.42138166 7.24753634 5.72507644 1.78417969 5.80541992 C0.58535156 5.81895508 0.58535156 5.81895508 -0.63769531 5.83276367 C-1.54261719 5.85016602 -1.54261719 5.85016602 -2.46582031 5.86791992 Z M66.53417969 109.86791992 C66.20417969 110.85791992 65.87417969 111.84791992 65.53417969 112.86791992 C71.23387546 118.37168865 76.29415128 121.51458422 84.28417969 122.18041992 C87.35311215 121.88533026 89.07712624 121.68795951 91.53417969 119.86791992 C93.2724117 117.46750429 93.56397963 116.27518579 93.34667969 113.30541992 C92.46533637 110.66138997 91.7252278 109.55334155 89.53417969 107.86791992 C82.18769573 105.41909194 73.45938119 106.46827555 66.53417969 109.86791992 Z M-50.46582031 133.86791992 C-52.92333957 137.24299858 -54.18823615 140.41060306 -54.96582031 144.49291992 C-54.2247083 148.013202 -52.74882 150.10428872 -50.46582031 152.86791992 C-45.88541796 155.71974165 -41.94817736 156.3493967 -36.65332031 156.24291992 C-35.94916992 156.23639404 -35.24501953 156.22986816 -34.51953125 156.22314453 C-28.97623106 156.08079585 -24.52054447 154.98870636 -19.46582031 152.86791992 C-18.87671875 152.7415918 -18.28761719 152.61526367 -17.68066406 152.48510742 C-14.35094377 151.55724886 -11.35309185 149.97976978 -8.27832031 148.43041992 C-7.58867188 148.08495117 -6.89902344 147.73948242 -6.18847656 147.38354492 C1.93347607 143.24952946 9.73643824 138.57744694 17.53417969 133.86791992 C17.03917969 132.87791992 17.03917969 132.87791992 16.53417969 131.86791992 C15.87417969 131.86791992 15.21417969 131.86791992 14.53417969 131.86791992 C14.53417969 131.20791992 14.53417969 130.54791992 14.53417969 129.86791992 C-5.79156184 121.88389551 -33.07498169 116.78824939 -50.46582031 133.86791992 Z " fill="#050505" transform="translate(530.4658203125,643.132080078125)"/>
<path d="M0 0 C0.82831329 0.01041321 1.65662659 0.02082642 2.51004028 0.03155518 C3.39859711 0.04917908 4.28715393 0.06680298 5.20263672 0.08496094 C6.12769012 0.10145691 7.05274353 0.11795288 8.00582886 0.13494873 C9.96439472 0.17241964 11.92290388 0.21296237 13.88134766 0.25634766 C16.85035844 0.318665 19.8192026 0.36040013 22.78857422 0.40136719 C24.6974549 0.44045772 26.60631076 0.48078379 28.51513672 0.52246094 C29.82975388 0.5367514 29.82975388 0.5367514 31.17092896 0.55133057 C40.93020679 0.8165214 48.91351831 2.86332303 55.75732422 10.06933594 C58.43491723 13.01468825 59.32745389 15.11452891 59.75732422 19.06933594 C59.84498047 19.7925 59.93263672 20.51566406 60.02294922 21.26074219 C60.52734667 28.58596884 58.21129912 33.33379279 53.75732422 39.06933594 C51.06982422 41.56933594 51.06982422 41.56933594 48.75732422 43.06933594 C47.76732422 43.72933594 46.77732422 44.38933594 45.75732422 45.06933594 C46.40958984 45.30007813 47.06185547 45.53082031 47.73388672 45.76855469 C53.96669514 48.09436668 59.51001082 50.19272033 63.00732422 56.22558594 C66.22169045 63.27933405 67.33499854 70.3564535 64.83935547 77.81152344 C61.37039705 85.37811882 56.29419129 90.11951177 48.56518555 93.2253418 C36.63146587 96.81240979 22.15972665 95.19062379 9.81982422 95.13183594 C7.96110148 95.12680578 6.10237741 95.12224558 4.24365234 95.11816406 C-0.2518241 95.10729028 -4.74723465 95.09011117 -9.24267578 95.06933594 C-9.24267578 94.07933594 -9.24267578 93.08933594 -9.24267578 92.06933594 C-7.85048828 91.48152344 -7.85048828 91.48152344 -6.43017578 90.88183594 C-2.84740543 88.84457437 -1.96256744 87.74857274 -0.24267578 84.06933594 C0.19643991 80.69298855 0.19643991 80.69298855 0.11376953 76.97167969 C0.1158139 76.27672394 0.11785828 75.58176819 0.1199646 74.86575317 C0.12296126 72.5791756 0.10452828 70.29332727 0.08544922 68.00683594 C0.08238919 66.41170429 0.08051492 64.81656996 0.07977295 63.22143555 C0.07517672 59.88254526 0.06077793 56.54389707 0.03857422 53.20507812 C0.01029258 48.93129512 -0.00063838 44.65770254 -0.00510788 40.38383484 C-0.00927069 37.09124865 -0.01909536 33.79870067 -0.03098297 30.50613403 C-0.0366687 28.93051456 -0.04143295 27.35489147 -0.04524994 25.77926636 C-0.05214755 23.57510995 -0.06579637 21.371101 -0.08154297 19.16699219 C-0.09178497 17.28765991 -0.09178497 17.28765991 -0.10223389 15.37036133 C-0.2254024 12.47533922 -0.57279445 9.88105164 -1.24267578 7.06933594 C-4.21267578 6.07933594 -7.18267578 5.08933594 -10.24267578 4.06933594 C-8.24267578 1.06933594 -8.24267578 1.06933594 -6.38284302 0.38616943 C-4.2109519 0.06463949 -2.19484224 -0.03311704 0 0 Z M21.75732422 6.06933594 C21.75732422 18.60933594 21.75732422 31.14933594 21.75732422 44.06933594 C28.96203065 44.19045098 28.96203065 44.19045098 34.75732422 41.06933594 C39.68887158 35.07150806 40.49329972 28.66995568 39.75732422 21.06933594 C38.79524057 16.03922931 37.86910177 12.18111348 34.19482422 8.50683594 C29.06154818 5.4795193 29.26053532 6.06933594 21.75732422 6.06933594 Z M21.75732422 48.06933594 C21.68311481 53.40784671 21.6286942 58.74605661 21.5925293 64.08496094 C21.5774516 65.90076936 21.55698624 67.71654141 21.53100586 69.53222656 C21.49457742 72.14364602 21.47758784 74.75458358 21.46435547 77.36621094 C21.44887161 78.17676941 21.43338776 78.98732788 21.41743469 79.82244873 C21.41644605 83.14052077 21.52044422 85.61606714 23.07250977 88.5859375 C24.79674981 90.38059466 24.79674981 90.38059466 28.00732422 90.50683594 C33.52216188 89.86343821 37.2928073 88.69217901 41.06982422 84.50683594 C45.05903039 76.38067522 45.54376218 67.91220384 43.75732422 59.06933594 C42.67393695 56.56277176 41.58797274 55.16919748 39.75732422 53.06933594 C39.24169922 52.47121094 38.72607422 51.87308594 38.19482422 51.25683594 C35.24484188 48.81989401 32.32623068 48.98376524 28.69482422 49.06933594 C23.9789231 49.18013538 23.9789231 49.18013538 21.75732422 48.06933594 Z " fill="#060606" transform="translate(184.24267578125,642.9306640625)"/>
<path d="M0 0 C9.21476347 7.32490928 16.25581468 19.27346043 17.609375 31.07421875 C18.46293035 48.27245092 16.04130105 63.52526936 4.609375 77.07421875 C1.546875 79.44921875 1.546875 79.44921875 -1.390625 81.07421875 C-2.298125 81.75484375 -3.205625 82.43546875 -4.140625 83.13671875 C-14.23521786 89.15464911 -25.97317798 89.62760395 -37.265625 86.88671875 C-42.19150574 85.36602588 -46.18655961 83.00336707 -50.390625 80.07421875 C-51.050625 79.74421875 -51.710625 79.41421875 -52.390625 79.07421875 C-62.23847679 68.22023968 -68.25024238 54.75465692 -68.390625 40.07421875 C-67.36170719 25.10570137 -61.84319333 11.24234225 -50.71484375 0.9453125 C-35.40873835 -11.37674546 -15.95310252 -10.74806483 0 0 Z M-36.390625 4.07421875 C-38.11464923 7.30676417 -39.31389625 10.57756931 -40.390625 14.07421875 C-40.60460937 14.76902344 -40.81859375 15.46382812 -41.0390625 16.1796875 C-46.30478431 35.29654711 -45.1952101 59.12570648 -35.98828125 76.75390625 C-33.8294526 79.88922219 -31.89737643 81.6483391 -28.20703125 82.69140625 C-24.52795092 83.11223693 -22.06678198 83.34468154 -18.578125 81.94921875 C-10.56315293 75.07924269 -7.81610109 65.237239 -6.390625 55.07421875 C-6.09761134 50.67450066 -6.05671412 46.29518824 -6.078125 41.88671875 C-6.08303955 40.69506104 -6.0879541 39.50340332 -6.09301758 38.27563477 C-6.27182744 24.81354471 -7.47608376 11.17410992 -16.578125 0.51171875 C-19.98334379 -2.18897202 -22.75270892 -2.39556353 -27.0078125 -2.3203125 C-31.31743094 -1.60675273 -33.79292705 0.66474019 -36.390625 4.07421875 Z " fill="#050505" transform="translate(718.390625,650.92578125)"/>
<path d="M0 0 C30.3105836 -1.4220569 30.3105836 -1.4220569 36 3.69140625 C38.24498362 6.54295118 39.72379059 9.71534548 41.11328125 13.05371094 C42.58814984 16.29095004 44.73847593 18.98715795 46.875 21.8125 C47.69916015 22.9568742 48.51939494 24.1040843 49.3359375 25.25390625 C49.7597168 25.8483252 50.18349609 26.44274414 50.62011719 27.05517578 C52.16229357 29.2287386 53.69516848 31.40867137 55.2265625 33.58984375 C55.77070801 34.36416748 56.31485352 35.13849121 56.87548828 35.9362793 C57.94071922 37.45344095 59.00425683 38.97179325 60.06591797 40.49145508 C60.54947754 41.18005615 61.03303711 41.86865723 61.53125 42.578125 C61.95986328 43.19075195 62.38847656 43.80337891 62.83007812 44.43457031 C64.05188515 46.14728719 64.05188515 46.14728719 66 48 C66.70710678 49.64991582 67.37943989 51.31562256 68 53 C68.66 53 69.32 53 70 53 C69.90616651 47.55536877 69.8000066 42.11116658 69.68261719 36.66699219 C69.64442878 34.81647249 69.60955849 32.96588113 69.578125 31.11523438 C69.53225359 28.44895893 69.47429641 25.78317252 69.4140625 23.1171875 C69.40251129 22.29507782 69.39096008 21.47296814 69.37905884 20.62594604 C69.26383363 16.10062621 68.96422738 12.16807286 67 8 C63.51202512 6.20728609 63.51202512 6.20728609 60 5 C59.505 4.01 59.505 4.01 59 3 C58.01 2.67 57.02 2.34 56 2 C59.36551123 0.87816292 62.09060232 0.79199032 65.63671875 0.68359375 C67.58481445 0.62075195 67.58481445 0.62075195 69.57226562 0.55664062 C70.94400761 0.51683013 72.31575244 0.47711784 73.6875 0.4375 C75.07097645 0.39429165 76.45444027 0.35067661 77.83789062 0.30664062 C81.22515719 0.20041972 84.61249799 0.09837642 88 0 C85.4453125 4.8515625 85.4453125 4.8515625 81.4375 6.1875 C77.91915514 7.56144159 77.91915514 7.56144159 77.23243713 9.98780823 C76.11053446 16.28862065 75.7466426 22.32148208 75.83984375 28.71484375 C75.84504532 29.69240128 75.85024689 30.6699588 75.85560608 31.67713928 C75.87325018 34.76408578 75.90442783 37.85068345 75.9375 40.9375 C75.96515273 44.04927426 75.98982526 47.16100212 76.00868225 50.27284241 C76.02090956 52.20048768 76.03848393 54.12810815 76.06199646 56.0556488 C76.07179283 57.3582943 76.07179283 57.3582943 76.08178711 58.68725586 C76.09004013 59.44985214 76.09829315 60.21244843 76.10679626 60.99815369 C76 63 76 63 75 66 C75.66 66.33 76.32 66.66 77 67 C76.67 67.33 76.34 67.66 76 68 C75.91251793 69.92667507 75.89302666 71.85651861 75.90234375 73.78515625 C75.90556641 74.95498047 75.90878906 76.12480469 75.91210938 77.33007812 C75.92048828 78.56177734 75.92886719 79.79347656 75.9375 81.0625 C75.94201172 82.29806641 75.94652344 83.53363281 75.95117188 84.80664062 C75.96300392 87.87114117 75.97948827 90.93554721 76 94 C74.515 94.495 74.515 94.495 73 95 C71.29115995 93.37660195 69.62553283 91.70680947 68 90 C68 89.34 68 88.68 68 88 C67.34 88 66.68 88 66 88 C64.58984375 86.015625 64.58984375 86.015625 62.9375 83.25 C59.63968685 77.91328992 56.03215861 72.93077632 52.234375 67.94140625 C50.22530329 65.29659681 48.25900559 62.62850238 46.3125 59.9375 C43.7949471 56.45824189 41.25938237 52.9939162 38.703125 49.54296875 C31.97937167 40.46302836 25.34503317 31.34969173 19 22 C18.27112484 25.92978185 17.87078836 29.65567115 17.85473633 33.65063477 C17.84835648 34.73518448 17.84197662 35.81973419 17.83540344 36.93714905 C17.83429062 38.09355392 17.8331778 39.2499588 17.83203125 40.44140625 C17.82870285 41.64184067 17.82537445 42.84227509 17.82194519 44.0790863 C17.81689221 46.6115582 17.81453636 49.14403674 17.81469727 51.67651367 C17.81250592 55.55203146 17.79431933 59.42726672 17.77539062 63.30273438 C17.77245736 65.76562403 17.77047212 68.22851503 17.76953125 70.69140625 C17.76234573 71.84983536 17.75516022 73.00826447 17.74775696 74.20179749 C17.75083359 75.28319504 17.75391022 76.36459259 17.75708008 77.47875977 C17.75565506 78.42662857 17.75423004 79.37449738 17.75276184 80.35108948 C18.02356304 83.2524545 18.72552385 85.38728206 20 88 C21.67625949 89.41853185 21.67625949 89.41853185 23.625 90.3125 C24.73875 90.869375 25.8525 91.42625 27 92 C27 92.99 27 93.98 27 95 C19.08 95 11.16 95 3 95 C2.505 95.99 2.505 95.99 2 97 C2 96.34 2 95.68 2 95 C1.34 95 0.68 95 0 95 C0.33 94.01 0.66 93.02 1 92 C2.98820324 91.04741031 5.00191586 90.35325526 7.08984375 89.6484375 C10.27217601 86.90213032 10.44806459 82.99393147 11 79 C11.29119084 73.95378802 11.30644402 68.91238092 11.30078125 63.859375 C11.3046757 62.40447875 11.3090119 60.94958363 11.31376648 59.49468994 C11.32118621 56.46224254 11.32096644 53.4299117 11.31567383 50.39746094 C11.30985438 46.51823718 11.32688975 42.63948704 11.3500185 38.76034164 C11.36476167 35.76285024 11.36562729 32.7654732 11.36250877 29.76795197 C11.3630207 28.3374563 11.36823418 26.90695403 11.37832069 25.47649384 C11.39069134 23.47883267 11.38194577 21.48107469 11.37231445 19.48339844 C11.37294388 18.34916443 11.3735733 17.21493042 11.3742218 16.04632568 C10.95427909 12.62781219 10.02884041 10.75667753 8 8 C6.0062203 6.58544106 6.0062203 6.58544106 3.8125 5.6875 C3.09707031 5.36136719 2.38164063 5.03523437 1.64453125 4.69921875 C1.10183594 4.46847656 0.55914063 4.23773437 0 4 C0 2.68 0 1.36 0 0 Z " fill="#070707" transform="translate(736,643)"/>
<path d="M0 0 C2 2 2 2 2.23046875 4.94140625 C2.1502446 11.70211388 1.92419914 18.29955622 1 25 C-0.485 24.505 -0.485 24.505 -2 24 C-3.16815646 21.27282103 -3.97535261 18.500791 -4.83984375 15.6640625 C-6.15066473 12.65402913 -7.13150541 11.55310757 -10 10 C-11.32 10 -12.64 10 -14 10 C-14.66 9.67 -15.32 9.34 -16 9 C-18.5115887 8.90207108 -20.98909766 8.86092017 -23.5 8.875 C-24.18964844 8.87113281 -24.87929688 8.86726562 -25.58984375 8.86328125 C-29.42166214 8.80959134 -29.42166214 8.80959134 -33 10 C-33 21.88 -33 33.76 -33 46 C-20.65700981 45.20715658 -20.65700981 45.20715658 -15 40 C-13.79252087 37.68934206 -13.79252087 37.68934206 -13.1875 35.25 C-12.95417969 34.45078125 -12.72085938 33.6515625 -12.48046875 32.828125 C-12.32191406 32.22484375 -12.16335938 31.6215625 -12 31 C-11.34 31.33 -10.68 31.66 -10 32 C-10 41.9 -10 51.8 -10 62 C-10.99 62.495 -10.99 62.495 -12 63 C-14 61 -14 61 -15 58 C-15 56.68 -15 55.36 -15 54 C-18.56086658 52.81304447 -21.97331024 52.64904582 -25.6875 52.4375 C-26.38939453 52.39431641 -27.09128906 52.35113281 -27.81445312 52.30664062 C-29.54275206 52.2008264 -31.2713511 52.09993419 -33 52 C-32.90644737 56.7875368 -32.80035016 61.57456894 -32.68261719 66.36157227 C-32.64433382 67.99007549 -32.60947976 69.61866309 -32.578125 71.24731445 C-32.53245998 73.58836014 -32.47446923 75.9288253 -32.4140625 78.26953125 C-32.40251129 78.99775589 -32.39096008 79.72598053 -32.37905884 80.47627258 C-32.27121488 84.16961374 -32.10115724 85.84826414 -30 89 C-27.03581264 89.33369655 -24.33867709 89.46358036 -21.375 89.4375 C-20.59253906 89.45748047 -19.81007813 89.47746094 -19.00390625 89.49804688 C-12.54662922 89.49269258 -7.23945818 87.89914854 -2.36157227 83.53369141 C-0.42952549 81.35741063 0.52985076 78.97196447 1.6875 76.3125 C2.12449219 75.31863281 2.56148438 74.32476563 3.01171875 73.30078125 C3.33785156 72.54152344 3.66398437 71.78226563 4 71 C4.99 71 5.98 71 7 71 C6.7834375 72.299375 6.7834375 72.299375 6.5625 73.625 C5.8292441 78.65451583 5.58885058 83.72305212 5.28125 88.79296875 C5.05630504 91.35796612 4.66093171 93.53455081 4 96 C-4.83153988 96.04628239 -13.6630382 96.08184825 -22.49467278 96.10362434 C-26.59528757 96.11407426 -30.69581958 96.12825537 -34.79638672 96.15087891 C-38.75155581 96.1725644 -42.70664511 96.18455952 -46.66186905 96.18975449 C-48.17299786 96.19345799 -49.68412217 96.20068975 -51.19521713 96.21146011 C-53.30716232 96.22591823 -55.41877524 96.22798037 -57.53076172 96.22705078 C-58.73433319 96.231492 -59.93790466 96.23593323 -61.177948 96.24050903 C-64 96 -64 96 -66 94 C-59.25 90 -59.25 90 -57 90 C-56.04813574 85.9866849 -55.86770071 82.237541 -55.85473633 78.11767578 C-55.85137772 77.44543976 -55.8480191 76.77320374 -55.84455872 76.08059692 C-55.83509696 73.8688164 -55.83310803 71.65711197 -55.83203125 69.4453125 C-55.82881539 67.89981048 -55.82545107 66.35430876 -55.82194519 64.80880737 C-55.8159659 61.57256363 -55.81410406 58.33634654 -55.81469727 55.10009766 C-55.81479883 50.96548049 -55.80114735 46.83103527 -55.78392506 42.69645882 C-55.772774 39.5050275 -55.77077901 36.31363736 -55.77130699 33.12218857 C-55.77013153 31.59845258 -55.76573425 30.07471537 -55.75797462 28.55099869 C-55.74811154 26.41424974 -55.75107733 24.27786892 -55.75708008 22.14111328 C-55.75565506 20.92819611 -55.75423004 19.71527893 -55.75276184 18.46560669 C-56.02189046 14.69315533 -56.68216321 11.5452316 -58 8 C-60.98434837 6.00574976 -60.98434837 6.00574976 -64 5 C-64 4.01 -64 3.02 -64 2 C-49.53692965 1.04816879 -35.23340224 1.01568834 -20.75 1.4375 C-18.72137231 1.49092767 -16.69272632 1.54366519 -14.6640625 1.59570312 C-9.77579524 1.72255624 -4.88786711 1.85859686 0 2 C0 1.34 0 0.68 0 0 Z " fill="#070707" transform="translate(487,642)"/>
<path d="M0 0 C-2.5958956 2.87402727 -4.21369298 4.24432948 -8 5 C-7.56519928 12.09936921 -5.87665149 17.36920148 -2.8125 23.75 C-2.40974854 24.6152832 -2.00699707 25.48056641 -1.59204102 26.37207031 C-0.7838581 28.10603103 0.02959526 29.83754626 0.84863281 31.56640625 C2.44852888 34.9480356 4.0037997 38.34919935 5.5625 41.75 C6.37396608 43.50047967 7.18599968 45.25069736 8 47 C8.495 46.01 8.495 46.01 9 45 C9.66 45 10.32 45 11 45 C11.27706787 44.12601563 11.55413574 43.25203125 11.83959961 42.3515625 C12.91699753 39.23973447 14.15601885 36.3477926 15.56640625 33.375 C16.05173828 32.33859375 16.53707031 31.3021875 17.03710938 30.234375 C18.05474833 28.07661558 19.07558837 25.92036297 20.09960938 23.765625 C20.58365234 22.72921875 21.06769531 21.6928125 21.56640625 20.625 C22.23071655 19.22121094 22.23071655 19.22121094 22.90844727 17.7890625 C24.5325005 13.63939036 25.61773327 10.43054021 23.8125 6.25 C21.97795525 3.97263411 20.70408823 3.02568864 18 2 C18 1.34 18 0.68 18 0 C26.58 0 35.16 0 44 0 C44 0.99 44 1.98 44 3 C42.16619801 4.28775673 40.23861595 5.22465074 38.23828125 6.23046875 C25.34291045 16.42523834 12.71171506 46.79987309 10.83866882 62.67132568 C10.25541625 70.57087458 9.54799313 81.03961836 14 88 C15.99180409 89.01622658 17.99152635 90.01712992 20 91 C20.33 91.99 20.66 92.98 21 94 C7.14 93.67 -6.72 93.34 -21 93 C-21 92.34 -21 91.68 -21 91 C-20.44570313 90.82726562 -19.89140625 90.65453125 -19.3203125 90.4765625 C-16.01952544 89.19618603 -13.58282714 88.23559354 -12.0234375 84.9296875 C-10.67332603 78.66275216 -9.06714585 68.8657083 -12 63 C-11.938125 61.989375 -11.87625 60.97875 -11.8125 59.9375 C-12.02212713 55.53533035 -13.1964985 52.80845268 -15.125 48.91796875 C-16 47 -16 47 -16 45 C-17.32 44.67 -18.64 44.34 -20 44 C-19.67 43.01 -19.34 42.02 -19 41 C-19.6283106 38.86647785 -19.6283106 38.86647785 -20.73046875 36.61328125 C-21.31731445 35.3284082 -21.31731445 35.3284082 -21.91601562 34.01757812 C-22.33560547 33.12490234 -22.75519531 32.23222656 -23.1875 31.3125 C-23.58775391 30.43916016 -23.98800781 29.56582031 -24.40039062 28.66601562 C-25.58204487 26.10161525 -26.78468242 23.54860279 -28 21 C-28.3707666 20.22188965 -28.7415332 19.4437793 -29.12353516 18.64208984 C-31.11955566 14.52041584 -31.11955566 14.52041584 -34 11 C-34.625 8.375 -34.625 8.375 -35 6 C-37.97 5.01 -40.94 4.02 -44 3 C-43.67 2.01 -43.34 1.02 -43 0 C-12.66709003 -1.40027356 -12.66709003 -1.40027356 0 0 Z " fill="#060606" transform="translate(613,644)"/>
<path d="M0 0 C1.65 0 3.3 0 5 0 C5.81832722 1.89332534 6.62942268 3.78977733 7.4375 5.6875 C8.11619141 7.27111328 8.11619141 7.27111328 8.80859375 8.88671875 C10 12 10 12 10.53515625 14.83203125 C10.68855469 15.54746094 10.84195313 16.26289062 11 17 C11.66 17.33 12.32 17.66 13 18 C13.69785285 20.02377327 14.38440867 22.05186574 15.02734375 24.09375 C16.16407537 27.49024929 17.47076688 30.80586301 18.8125 34.125 C19.06692871 34.75639893 19.32135742 35.38779785 19.58349609 36.03833008 C20.67108903 38.73101599 21.76429898 41.42138812 22.85986328 44.11083984 C23.42834391 45.50742977 23.9955152 46.90455348 24.5612793 48.30224609 C25.09478484 49.62024328 25.63130249 50.9370261 26.17114258 52.25244141 C28 56.77455076 28 56.77455076 28 59 C28.66 59.33 29.32 59.66 30 60 C30.67578125 61.64453125 30.67578125 61.64453125 31.3125 63.8125 C32.54683027 67.72225679 33.95061665 71.51581286 35.5 75.3125 C36.10328125 76.79169922 36.10328125 76.79169922 36.71875 78.30078125 C37.91896396 80.82928079 39.3168425 82.78351643 41 85 C41 85.66 41 86.32 41 87 C41.7425 87.28875 42.485 87.5775 43.25 87.875 C45.56739797 88.82302644 47.77917115 89.84845911 50 91 C49.505 92.485 49.505 92.485 49 94 C35.14 94 21.28 94 7 94 C8 91 8 91 11.0625 89.3125 C12.031875 88.879375 13.00125 88.44625 14 88 C14.32932566 81.85258759 13.46778797 77.59568383 11 72 C10.01 69.69 9.02 67.38 8 65 C-0.58 65 -9.16 65 -18 65 C-18.845625 67.330625 -19.69125 69.66125 -20.5625 72.0625 C-20.83263916 72.78187744 -21.10277832 73.50125488 -21.38110352 74.24243164 C-22.96681832 78.80687846 -23.23355886 82.19814648 -22 87 C-19.69694835 88.89858275 -19.69694835 88.89858275 -17 90 C-15.515 90.99 -15.515 90.99 -14 92 C-14.33 92.66 -14.66 93.32 -15 94 C-15.77085937 93.98839844 -16.54171875 93.97679687 -17.3359375 93.96484375 C-18.33882813 93.95582031 -19.34171875 93.94679688 -20.375 93.9375 C-21.37273437 93.92589844 -22.37046875 93.91429687 -23.3984375 93.90234375 C-25.98432453 93.81993398 -25.98432453 93.81993398 -28 95 C-29.953125 94.9140625 -29.953125 94.9140625 -32.25 94.625 C-33.04792969 94.52574219 -33.84585938 94.42648437 -34.66796875 94.32421875 C-37.45555047 93.93666551 -40.22987135 93.49720258 -43 93 C-40.68473201 90.32853694 -39.31217048 89.09365114 -35.875 88.0625 C-32.82768464 87.31763887 -32.82768464 87.31763887 -31.93359375 84.74162292 C-31.62550781 83.83688736 -31.31742187 82.93215179 -31 82 C-30.55720703 80.81178398 -30.55720703 80.81178398 -30.10546875 79.5995636 C-29.65107422 78.34818855 -29.65107422 78.34818855 -29.1875 77.0715332 C-28.83921646 76.11394608 -28.49093292 75.15635895 -28.13209534 74.16975403 C-27.75850388 73.14049301 -27.38491241 72.11123199 -27 71.05078125 C-26.19146703 68.82872431 -25.38278639 66.6067211 -24.57397461 64.38476562 C-24.1529245 63.22759033 -23.73187439 62.07041504 -23.29806519 60.87817383 C-11.32240304 27.98205615 -11.32240304 27.98205615 -5.9375 14 C-5.55142578 12.99622314 -5.16535156 11.99244629 -4.76757812 10.95825195 C-3.31271878 7.21549809 -1.83925135 3.57288532 0 0 Z M-6 31 C-7.31352006 34.43711109 -8.62564032 37.87475488 -9.9375 41.3125 C-10.49727539 42.77719727 -10.49727539 42.77719727 -11.06835938 44.27148438 C-11.42607422 45.20927734 -11.78378906 46.14707031 -12.15234375 47.11328125 C-12.48226318 47.97735596 -12.81218262 48.84143066 -13.15209961 49.73168945 C-13.80370942 51.47488173 -14.41150067 53.234502 -15 55 C-15.33 55.99 -15.66 56.98 -16 58 C-8.74 58 -1.48 58 6 58 C4.741875 54.65875 3.48375 51.3175 2.1875 47.875 C1.79715576 46.83327637 1.40681152 45.79155273 1.00463867 44.71826172 C-0.78048566 40.00596854 -2.62666369 35.447198 -5 31 C-5.33 31 -5.66 31 -6 31 Z " fill="#060606" transform="translate(288,644)"/>
<path d="M0 0 C0 0.99 0 1.98 0 3 C-0.56589844 3.26554688 -1.13179688 3.53109375 -1.71484375 3.8046875 C-2.81505859 4.33449219 -2.81505859 4.33449219 -3.9375 4.875 C-4.66839844 5.22304688 -5.39929688 5.57109375 -6.15234375 5.9296875 C-8.16332459 6.8684977 -8.16332459 6.8684977 -9 9 C-9.07116382 11.37402501 -9.08409085 13.75000677 -9.0625 16.125 C-9.05347656 17.40632812 -9.04445313 18.68765625 -9.03515625 20.0078125 C-9.02355469 20.99523437 -9.01195312 21.98265625 -9 23 C-9.66 23 -10.32 23 -11 23 C-10.9278125 23.61931396 -10.855625 24.23862793 -10.78125 24.87670898 C-9.93388829 32.9568031 -9.92587762 40.94535304 -10 49.0625 C-10.06464795 62.37849063 -10.06464795 62.37849063 -9.6875 75.6875 C-9.65366211 76.74432983 -9.65366211 76.74432983 -9.61914062 77.82250977 C-9.40129554 81.75510857 -8.81508446 84.17798183 -6 87 C1.33605239 89.66765542 11.7416953 88.48187193 19 86 C24.11088161 83.2294328 26.21791902 80.49862 28.75 75.3125 C31.82422452 69.08788774 31.82422452 69.08788774 34 68 C34.20803528 76.66813661 34.11316146 84.54624547 32 93 C16.85301287 94.33181776 1.69181086 94.11239255 -13.5 94.0625 C-16.17317624 94.0568979 -18.84635191 94.05291356 -21.51953125 94.04882812 C-28.01304108 94.03790555 -34.50651617 94.02124982 -41 94 C-41 93.01 -41 92.02 -41 91 C-39.88625 90.566875 -38.7725 90.13375 -37.625 89.6875 C-35.16746432 88.26838924 -34.18265954 87.51132911 -33.21783447 84.81044006 C-31.99466065 77.30032908 -31.70877876 69.97327366 -31.734375 62.37109375 C-31.73246155 61.10080826 -31.7305481 59.83052277 -31.72857666 58.52174377 C-31.72722301 55.85167444 -31.72983601 53.18197823 -31.73925781 50.51196289 C-31.75066252 47.11763748 -31.74406945 43.72362816 -31.73211288 40.32931423 C-31.72308359 37.0515633 -31.72943394 33.77384883 -31.734375 30.49609375 C-31.73032654 29.29166122 -31.72627808 28.0872287 -31.72210693 26.84629822 C-31.76995946 16.77294635 -31.76995946 16.77294635 -34 7 C-36.30237282 4.90023803 -36.30237282 4.90023803 -39 4 C-39.99 3.34 -40.98 2.68 -42 2 C-41.67 1.34 -41.34 0.68 -41 0 C-11.65458453 -1.40027356 -11.65458453 -1.40027356 0 0 Z " fill="#060606" transform="translate(384,644)"/>
<path d="M0 0 C1.37031372 0.14332764 1.37031372 0.14332764 2.76831055 0.28955078 C13.19742057 1.49677302 22.44971965 4.32036547 31.6875 9.375 C34.54927057 10.80588528 36.62125773 9.97491697 39.6875 9.375 C39.3575 10.035 39.0275 10.695 38.6875 11.375 C39.6775 11.87 39.6775 11.87 40.6875 12.375 C40.3575 13.365 40.0275 14.355 39.6875 15.375 C40.3475 15.705 41.0075 16.035 41.6875 16.375 C41.6875 17.035 41.6875 17.695 41.6875 18.375 C42.3475 18.375 43.0075 18.375 43.6875 18.375 C45.06232707 20.00760714 46.39397667 21.67725062 47.6875 23.375 C48.6775 24.365 48.6775 24.365 49.6875 25.375 C53.66369026 32.62725399 54.19468959 38.41031694 51.9453125 46.33984375 C50.08305405 50.83355435 47.56546868 54.40606054 43.6875 57.375 C42.35985641 57.73031872 41.02710272 58.06782995 39.6875 58.375 C39.1925 59.365 39.1925 59.365 38.6875 60.375 C32.70642373 62.43744009 27.59777298 62.87550011 21.6875 60.375 C15.79008099 57.36611275 13.01129769 52.89108978 9.6875 47.375 C10.3475 47.045 11.0075 46.715 11.6875 46.375 C11.873125 45.2303125 11.873125 45.2303125 12.0625 44.0625 C12.85573841 40.65157484 13.90829677 39.47818083 16.6875 37.375 C20.3453382 36.20760483 21.94611824 36.02115871 25.4375 37.6875 C27.9101283 39.54197123 29.43292809 40.72038652 30.5625 43.625 C30.74202613 47.57457488 29.0775486 49.32104901 26.6875 52.375 C24.9375 54.25 24.9375 54.25 23.6875 55.375 C28.09664783 56.47728696 32.17132401 56.45154536 36.6875 56.375 C37.1825 55.385 37.1825 55.385 37.6875 54.375 C38.6775 54.045 39.6675 53.715 40.6875 53.375 C46.09199637 47.45578969 47.16415011 43.43221243 47.09765625 35.5859375 C46.23946924 28.86755917 42.39855203 23.57314423 37.3125 19.25 C36.44625 18.63125 35.58 18.0125 34.6875 17.375 C30.96135847 18.49354586 30.96135847 18.49354586 28.6875 21.375 C27.07388843 22.34726686 25.42022917 23.25357608 23.75 24.125 C20.03423886 26.09272955 16.42989689 28.13104515 12.875 30.375 C-0.42042247 38.44570373 -16.73383366 44.66344548 -32.46875 41.80078125 C-34.81149945 41.09451119 -37.0511511 40.30533091 -39.3125 39.375 C-40.3025 39.045 -41.2925 38.715 -42.3125 38.375 C-42.3125 37.715 -42.3125 37.055 -42.3125 36.375 C-43.3025 36.375 -44.2925 36.375 -45.3125 36.375 C-46.5387874 29.0172756 -47.66804238 22.14741384 -43.890625 15.390625 C-33.83887786 2.55225489 -15.46407764 -1.7282958 0 0 Z M-38.3125 15.375 C-40.77001925 18.75007866 -42.03491584 21.91768314 -42.8125 26 C-42.07138798 29.52028208 -40.59549969 31.6113688 -38.3125 34.375 C-33.73209764 37.22682173 -29.79485705 37.85647678 -24.5 37.75 C-23.79584961 37.74347412 -23.09169922 37.73694824 -22.36621094 37.73022461 C-16.82291075 37.58787593 -12.36722416 36.49578644 -7.3125 34.375 C-6.72339844 34.24867188 -6.13429688 34.12234375 -5.52734375 33.9921875 C-2.19762345 33.06432893 0.80022847 31.48684986 3.875 29.9375 C4.56464844 29.59203125 5.25429688 29.2465625 5.96484375 28.890625 C14.08679638 24.75660954 21.88975855 20.08452701 29.6875 15.375 C29.1925 14.385 29.1925 14.385 28.6875 13.375 C28.0275 13.375 27.3675 13.375 26.6875 13.375 C26.6875 12.715 26.6875 12.055 26.6875 11.375 C6.36175847 3.39097559 -20.92166138 -1.70467054 -38.3125 15.375 Z " fill="#141414" transform="translate(518.3125,761.625)"/>
<path d="M0 0 C2.57198206 1.9463648 3.75141245 3.40960456 5 6.375 C5 10.8733072 2.21023144 13.70332345 -0.75 16.875 C-1.1625 17.24625 -1.575 17.6175 -2 18 C-1.175 18.474375 -0.35 18.94875 0.5 19.4375 C1.7375 20.2109375 1.7375 20.2109375 3 21 C3 21.33 3 21.66 3 22 C-6.01746725 22.45851528 -6.01746725 22.45851528 -10 19 C-12.15944626 16.09325133 -14.11467945 13.0903708 -16 10 C-15.34 9.67 -14.68 9.34 -14 9 C-13.87625 8.236875 -13.7525 7.47375 -13.625 6.6875 C-12.84933946 3.35215967 -11.61408971 2.15277976 -9 0 C-5.41563853 -1.19478716 -3.63093708 -0.96330984 0 0 Z " fill="#0B0A0A" transform="translate(544,799)"/>
<path d="M0 0 C1.32 0 2.64 0 4 0 C6.79761628 6.87532267 5.52158653 12.18176272 3 19 C0.04428088 23.70357225 -2.53994968 26.74801394 -8 28 C-8.33 28.66 -8.66 29.32 -9 30 C-15.11527192 32.10871446 -20.00772023 32.34480513 -26 30 C-26 29.67 -26 29.34 -26 29 C-25.030625 28.87625 -24.06125 28.7525 -23.0625 28.625 C-22.051875 28.41875 -21.04125 28.2125 -20 28 C-19.67 27.34 -19.34 26.68 -19 26 C-16.36 26 -13.72 26 -11 26 C-10.67 25.34 -10.34 24.68 -10 24 C-9.01 23.67 -8.02 23.34 -7 23 C-1.99174619 17.51476964 -0.90661437 14.11728089 -0.4375 6.8125 C-0.35371094 5.54019531 -0.26992188 4.26789062 -0.18359375 2.95703125 C-0.09271484 1.49330078 -0.09271484 1.49330078 0 0 Z " fill="#181717" transform="translate(566,792)"/>
<path d="M0 0 C-1.58321784 3.68160973 -3.14278088 5.33365554 -6.765625 6.8359375 C-8.25399237 7.36730844 -9.74919024 7.87986105 -11.25 8.375 C-12.35794922 8.78298828 -12.35794922 8.78298828 -13.48828125 9.19921875 C-18.45107741 10.9060005 -21.87528164 11.15238376 -27 10 C-27 9.67 -27 9.34 -27 9 C-30.3 8.67 -33.6 8.34 -37 8 C-37 7.67 -37 7.34 -37 7 C-36.0821875 6.93941406 -35.164375 6.87882813 -34.21875 6.81640625 C-24.57079793 6.24858345 -24.57079793 6.24858345 -15 5 C-14.67 4.34 -14.34 3.68 -14 3 C-12.67288808 2.64270064 -11.33737094 2.31674575 -10 2 C-8.824375 1.46375 -7.64875 0.9275 -6.4375 0.375 C-3 -1 -3 -1 0 0 Z " fill="#1D1D1D" transform="translate(525,792)"/>
<path d="M0 0 C0.66 0.33 1.32 0.66 2 1 C1.01 2.32 0.02 3.64 -1 5 C-0.67 5.66 -0.34 6.32 0 7 C-0.66 7 -1.32 7 -2 7 C-2.33 7.66 -2.66 8.32 -3 9 C-9.11527192 11.10871446 -14.00772023 11.34480513 -20 9 C-20 8.67 -20 8.34 -20 8 C-19.030625 7.87625 -18.06125 7.7525 -17.0625 7.625 C-16.051875 7.41875 -15.04125 7.2125 -14 7 C-13.67 6.34 -13.34 5.68 -13 5 C-10.36 5 -7.72 5 -5 5 C-4.67 4.34 -4.34 3.68 -4 3 C-3.01 2.67 -2.02 2.34 -1 2 C-0.67 1.34 -0.34 0.68 0 0 Z " fill="#1E1D1D" transform="translate(560,813)"/>
<path d="M0 0 C0.66 0.33 1.32 0.66 2 1 C1.34 1.66 0.68 2.32 0 3 C16.335 3.495 16.335 3.495 33 4 C32.67 4.66 32.34 5.32 32 6 C19.79 6 7.58 6 -5 6 C-5 5.01 -5 4.02 -5 3 C-2.625 1.25 -2.625 1.25 0 0 Z " fill="#101010" transform="translate(348,732)"/>
<path d="M0 0 C0.66 0.33 1.32 0.66 2 1 C2 10.9 2 20.8 2 31 C1.34 31.33 0.68 31.66 0 32 C-0.66 31.34 -1.32 30.68 -2 30 C-2 29.01 -2 28.02 -2 27 C-1.34 27 -0.68 27 0 27 C0 20.4 0 13.8 0 7 C-0.99 7.495 -0.99 7.495 -2 8 C-1.34 5.36 -0.68 2.72 0 0 Z " fill="#333232" transform="translate(475,673)"/>
<path d="M0 0 C2.475 0.99 2.475 0.99 5 2 C4.67 2.99 4.34 3.98 4 5 C-0.56248659 5.02906612 -5.1249493 5.04682113 -9.6875 5.0625 C-10.98107422 5.07087891 -12.27464844 5.07925781 -13.60742188 5.08789062 C-15.47817383 5.09272461 -15.47817383 5.09272461 -17.38671875 5.09765625 C-19.10701294 5.10551147 -19.10701294 5.10551147 -20.86206055 5.11352539 C-23.70263777 5.01075807 -26.24043792 4.65316416 -29 4 C-29 3.67 -29 3.34 -29 3 C-19.43 2.67 -9.86 2.34 0 2 C0 1.34 0 0.68 0 0 Z " fill="#191919" transform="translate(333,733)"/>
<path d="M0 0 C0.99 0.66 1.98 1.32 3 2 C4.88154883 2.44111565 6.78062638 2.8109267 8.6875 3.125 C9.68136719 3.29257812 10.67523438 3.46015625 11.69921875 3.6328125 C12.45847656 3.75398437 13.21773438 3.87515625 14 4 C12 6 12 6 10.046875 6.01171875 C9.28890625 5.90472656 8.5309375 5.79773438 7.75 5.6875 C6.95207031 5.57921875 6.15414062 5.4709375 5.33203125 5.359375 C2.54983364 4.93062763 -0.22913555 4.49733464 -3 4 C-2.01 2.68 -1.02 1.36 0 0 Z " fill="#2D2C2B" transform="translate(248,733)"/>
<path d="M0 0 C0.66 0.33 1.32 0.66 2 1 C2 5.62 2 10.24 2 15 C1.67 15 1.34 15 1 15 C0.67 12.36 0.34 9.72 0 7 C-0.99 7.495 -0.99 7.495 -2 8 C-1.34 5.36 -0.68 2.72 0 0 Z " fill="#292726" transform="translate(475,673)"/>
<path d="M0 0 C0.66 0.33 1.32 0.66 2 1 C1.01 2.32 0.02 3.64 -1 5 C-0.67 5.66 -0.34 6.32 0 7 C-0.66 7 -1.32 7 -2 7 C-2.33 7.66 -2.66 8.32 -3 9 C-3.33 8.01 -3.66 7.02 -4 6 C-6.01508358 5.26676204 -6.01508358 5.26676204 -8 5 C-7.01 5 -6.02 5 -5 5 C-4.67 4.34 -4.34 3.68 -4 3 C-3.01 2.67 -2.02 2.34 -1 2 C-0.67 1.34 -0.34 0.68 0 0 Z " fill="#2B2A2A" transform="translate(560,813)"/>
<path d="M0 0 C0.33 0 0.66 0 1 0 C1 4.95 1 9.9 1 15 C0.67 15 0.34 15 0 15 C-0.33 12.03 -0.66 9.06 -1 6 C-1.99 6.495 -1.99 6.495 -3 7 C-1.125 1.125 -1.125 1.125 0 0 Z " fill="#262525" transform="translate(417,712)"/>
<path d="M0 0 C0.66 0.33 1.32 0.66 2 1 C1.67 3.31 1.34 5.62 1 8 C-0.65 8.33 -2.3 8.66 -4 9 C-2.25 2.25 -2.25 2.25 0 0 Z " fill="#222121" transform="translate(492,712)"/>
<path d="M0 0 C0.66 0.33 1.32 0.66 2 1 C-0.97 3.97 -3.94 6.94 -7 10 C-7 7 -7 7 -4.625 4.4375 C-3.75875 3.633125 -2.8925 2.82875 -2 2 C-1.34 1.34 -0.68 0.68 0 0 Z " fill="#1C1B1B" transform="translate(482,770)"/>
<path d="M0 0 C0 3 0 3 -2 6 C-4.625 6.6875 -4.625 6.6875 -7 7 C-7 6.01 -7 5.02 -7 4 C-6.030625 3.525625 -5.06125 3.05125 -4.0625 2.5625 C-1.19522563 1.29806053 -1.19522563 1.29806053 0 0 Z " fill="#292927" transform="translate(182,731)"/>
<path d="M0 0 C0.66 0.33 1.32 0.66 2 1 C0.75 3.5 0.75 3.5 -1 6 C-2.32 6 -3.64 6 -5 6 C-5 5.01 -5 4.02 -5 3 C-2.625 1.25 -2.625 1.25 0 0 Z " fill="#272625" transform="translate(348,732)"/>
<path d="M0 0 C0.66 0.99 1.32 1.98 2 3 C1.01 2.67 0.02 2.34 -1 2 C-0.67 1.34 -0.34 0.68 0 0 Z " fill="#3D3B3B" transform="translate(561,789)"/>
<path d="M0 0 C0.99 0.495 0.99 0.495 2 1 C1.01 2.485 1.01 2.485 0 4 C0 2.68 0 1.36 0 0 Z " fill="#2D2C2A" transform="translate(632,656)"/>
<path d="M0 0 C0.99 0.33 1.98 0.66 3 1 C2.01 1.33 1.02 1.66 0 2 C0 1.34 0 0.68 0 0 Z " fill="#41403F" transform="translate(550,816)"/>
<path d="M0 0 C0.66 0 1.32 0 2 0 C2 0.66 2 1.32 2 2 C1.34 2 0.68 2 0 2 C0 1.34 0 0.68 0 0 Z " fill="#3A3A39" transform="translate(496,761)"/>
<path d="M0 0 C1 4 1 4 1 4 Z " fill="#2C2C2C" transform="translate(676,693)"/>
<path d="M0 0 C0.33 0.66 0.66 1.32 1 2 C0.01 1.67 -0.98 1.34 -2 1 C-1.34 0.67 -0.68 0.34 0 0 Z " fill="#1F1E1E" transform="translate(489,264)"/>
<path d="M0 0 C0.99 0.33 1.98 0.66 3 1 C2.01 1.33 1.02 1.66 0 2 C0 1.34 0 0.68 0 0 Z " fill="#1E1E1E" transform="translate(592,256)"/>
<path d="M0 0 C0.66 0.66 1.32 1.32 2 2 C1.34 2 0.68 2 0 2 C0 1.34 0 0.68 0 0 Z " fill="#494749" transform="translate(485,806)"/>
<path d="M0 0 C0.99 0.495 0.99 0.495 2 1 C1.01 1.495 1.01 1.495 0 2 C0 1.34 0 0.68 0 0 Z " fill="#3C3C3B" transform="translate(566,783)"/>
<path d="M0 0 C0.66 0 1.32 0 2 0 C1.67 0.66 1.34 1.32 1 2 C0.67 1.34 0.34 0.68 0 0 Z " fill="#383637" transform="translate(552,782)"/>
<path d="M0 0 C3 1 3 1 3 1 Z " fill="#3A3938" transform="translate(513,760)"/>
<path d="M0 0 C0.33 0.66 0.66 1.32 1 2 C0.34 1.67 -0.32 1.34 -1 1 C-0.67 0.67 -0.34 0.34 0 0 Z " fill="#312F2F" transform="translate(569,752)"/>
<path d="M0 0 C0.99 0.495 0.99 0.495 2 1 C1.01 1.495 1.01 1.495 0 2 C0 1.34 0 0.68 0 0 Z " fill="#302E2E" transform="translate(273,709)"/>
<path d="" fill="#2F2E2D" transform="translate(0,0)"/>
<path d="M0 0 C3 1 3 1 3 1 Z " fill="#161513" transform="translate(478,580)"/>
<path d="M0 0 C0.99 0.495 0.99 0.495 2 1 C1.01 1.495 1.01 1.495 0 2 C0 1.34 0 0.68 0 0 Z " fill="#1F1F1F" transform="translate(620,514)"/>
<path d="M0 0 C0.66 0 1.32 0 2 0 C1.67 0.66 1.34 1.32 1 2 C0.67 1.34 0.34 0.68 0 0 Z " fill="#222222" transform="translate(331,350)"/>
<path d="M0 0 C0.33 0.66 0.66 1.32 1 2 C0.34 1.67 -0.32 1.34 -1 1 C-0.67 0.67 -0.34 0.34 0 0 Z " fill="#343535" transform="translate(684,222)"/>
<path d="" fill="#3E3D3E" transform="translate(0,0)"/>
<path d="M0 0 C2 1 2 1 2 1 Z " fill="#403D3D" transform="translate(560,811)"/>
<path d="" fill="#3B3A3A" transform="translate(0,0)"/>
<path d="M0 0 C2 1 2 1 2 1 Z " fill="#3C3B3A" transform="translate(601,771)"/>
<path d="" fill="#3B393B" transform="translate(0,0)"/>
<path d="M0 0 C2 1 2 1 2 1 Z " fill="#3C3A3A" transform="translate(616,761)"/>
<path d="" fill="#383638" transform="translate(0,0)"/>
<path d="M0 0 C2 1 2 1 2 1 Z " fill="#333232" transform="translate(568,760)"/>
<path d="M0 0 C2 1 2 1 2 1 Z " fill="#383838" transform="translate(518,760)"/>
<path d="" fill="#312F2D" transform="translate(0,0)"/>
<path d="M0 0 C2 1 2 1 2 1 Z " fill="#2E3031" transform="translate(594,747)"/>
<path d="M0 0 C2 1 2 1 2 1 Z " fill="#444443" transform="translate(301,743)"/>
<path d="M0 0 C2 1 2 1 2 1 Z " fill="#444242" transform="translate(687,740)"/>
<path d="" fill="#3F3E3D" transform="translate(0,0)"/>
<path d="M0 0 C2 1 2 1 2 1 Z " fill="#343536" transform="translate(699,730)"/>
<path d="M0 0 C2 1 2 1 2 1 Z " fill="#2D2D2D" transform="translate(504,725)"/>
<path d="M0 0 C2 1 2 1 2 1 Z " fill="#2D2D2C" transform="translate(504,719)"/>
<path d="" fill="#2D2B2B" transform="translate(0,0)"/>
<path d="" fill="#343433" transform="translate(0,0)"/>
<path d="" fill="#2D2C2C" transform="translate(0,0)"/>
<path d="" fill="#272727" transform="translate(0,0)"/>
<path d="" fill="#2A2828" transform="translate(0,0)"/>
<path d="" fill="#292A27" transform="translate(0,0)"/>
<path d="M0 0 C2 1 2 1 2 1 Z " fill="#292A29" transform="translate(465,695)"/>
<path d="" fill="#282727" transform="translate(0,0)"/>
<path d="" fill="#353534" transform="translate(0,0)"/>
<path d="M0 0 C2 1 2 1 2 1 Z " fill="#262627" transform="translate(539,690)"/>
<path d="" fill="#2E2E2E" transform="translate(0,0)"/>
<path d="" fill="#2F2F2D" transform="translate(0,0)"/>
<path d="" fill="#2C2D2A" transform="translate(0,0)"/>
<path d="" fill="#2B292A" transform="translate(0,0)"/>
<path d="" fill="#282525" transform="translate(0,0)"/>
<path d="M0 0 C2 1 2 1 2 1 Z " fill="#2F2E2D" transform="translate(656,663)"/>
<path d="" fill="#2E302E" transform="translate(0,0)"/>
<path d="M0 0 C2 1 2 1 2 1 Z " fill="#2A292A" transform="translate(576,652)"/>
<path d="M0 0 C2 1 2 1 2 1 Z " fill="#2B2A2A" transform="translate(474,652)"/>
<path d="M0 0 C2 1 2 1 2 1 Z " fill="#30302E" transform="translate(697,651)"/>
<path d="M0 0 C2 1 2 1 2 1 Z " fill="#3D3D3A" transform="translate(705,643)"/>
<path d="M0 0 C2 1 2 1 2 1 Z " fill="#3F403E" transform="translate(743,642)"/>
<path d="M0 0 C2 1 2 1 2 1 Z " fill="#343433" transform="translate(454,642)"/>
<path d="" fill="#373735" transform="translate(0,0)"/>
<path d="M0 0 C2 1 2 1 2 1 Z " fill="#3D3E3D" transform="translate(349,642)"/>
<path d="M0 0 C2 1 2 1 2 1 Z " fill="#4B4B4A" transform="translate(821,641)"/>
<path d="M0 0 C2 1 2 1 2 1 Z " fill="#363734" transform="translate(383,610)"/>
<path d="M0 0 C2 1 2 1 2 1 Z " fill="#232424" transform="translate(401,550)"/>
<path d="M0 0 C2 1 2 1 2 1 Z " fill="#292728" transform="translate(386,531)"/>
<path d="" fill="#282B29" transform="translate(0,0)"/>
<path d="" fill="#252525" transform="translate(0,0)"/>
<path d="" fill="#131513" transform="translate(0,0)"/>
<path d="" fill="#151414" transform="translate(0,0)"/>
<path d="" fill="#1E1D1E" transform="translate(0,0)"/>
<path d="" fill="#18171A" transform="translate(0,0)"/>
<path d="" fill="#1E1F1E" transform="translate(0,0)"/>
<path d="" fill="#201F20" transform="translate(0,0)"/>
<path d="" fill="#1F2120" transform="translate(0,0)"/>
<path d="M0 0 C2 1 2 1 2 1 Z " fill="#232123" transform="translate(624,240)"/>
<path d="" fill="#2E3030" transform="translate(0,0)"/>
<path d="" fill="#2D2D2D" transform="translate(0,0)"/>
<path d="" fill="#3B393A" transform="translate(0,0)"/>
<path d="" fill="#3E403E" transform="translate(0,0)"/>
<path d="" fill="#363737" transform="translate(0,0)"/>
<path d="" fill="#3B3C3C" transform="translate(0,0)"/>
<path d="" fill="#2F2E2F" transform="translate(0,0)"/>
<path d="" fill="#2B2B2A" transform="translate(0,0)"/>
<path d="" fill="#3D3B3D" transform="translate(0,0)"/>
<path d="" fill="#393939" transform="translate(0,0)"/>
<path d="" fill="#414342" transform="translate(0,0)"/>
<path d="" fill="#464548" transform="translate(0,0)"/>
<path d="" fill="#333132" transform="translate(0,0)"/>
<path d="" fill="#3B3A38" transform="translate(0,0)"/>
<path d="" fill="#474848" transform="translate(0,0)"/>
<path d="" fill="#353435" transform="translate(0,0)"/>
<path d="" fill="#474948" transform="translate(0,0)"/>
<path d="" fill="#4D4C4B" transform="translate(0,0)"/>
<path d="" fill="#434144" transform="translate(0,0)"/>
<path d="" fill="#404343" transform="translate(0,0)"/>
<path d="" fill="#525050" transform="translate(0,0)"/>
<path d="" fill="#515152" transform="translate(0,0)"/>
<path d="" fill="#444443" transform="translate(0,0)"/>
<path d="" fill="#3C3F42" transform="translate(0,0)"/>
<path d="" fill="#444543" transform="translate(0,0)"/>
<path d="" fill="#424342" transform="translate(0,0)"/>
<path d="" fill="#403E3D" transform="translate(0,0)"/>
<path d="" fill="#413D41" transform="translate(0,0)"/>
<path d="" fill="#433F3F" transform="translate(0,0)"/>
<path d="" fill="#454343" transform="translate(0,0)"/>
<path d="" fill="#474446" transform="translate(0,0)"/>
<path d="" fill="#404040" transform="translate(0,0)"/>
<path d="" fill="#424342" transform="translate(0,0)"/>
<path d="" fill="#424440" transform="translate(0,0)"/>
<path d="" fill="#3E3D40" transform="translate(0,0)"/>
<path d="" fill="#3D3B3B" transform="translate(0,0)"/>
<path d="" fill="#3F3D3A" transform="translate(0,0)"/>
<path d="" fill="#3E3B3E" transform="translate(0,0)"/>
<path d="" fill="#454345" transform="translate(0,0)"/>
<path d="" fill="#3C3B38" transform="translate(0,0)"/>
<path d="" fill="#444A45" transform="translate(0,0)"/>
<path d="" fill="#3E4042" transform="translate(0,0)"/>
<path d="" fill="#454443" transform="translate(0,0)"/>
<path d="" fill="#454343" transform="translate(0,0)"/>
<path d="" fill="#3F3F3D" transform="translate(0,0)"/>
<path d="" fill="#3D3B38" transform="translate(0,0)"/>
<path d="" fill="#454343" transform="translate(0,0)"/>
<path d="" fill="#4A4746" transform="translate(0,0)"/>
<path d="" fill="#494949" transform="translate(0,0)"/>
<path d="" fill="#373734" transform="translate(0,0)"/>
<path d="" fill="#3B3A39" transform="translate(0,0)"/>
<path d="" fill="#3C3A38" transform="translate(0,0)"/>
<path d="" fill="#373539" transform="translate(0,0)"/>
<path d="" fill="#3E4140" transform="translate(0,0)"/>
<path d="" fill="#393539" transform="translate(0,0)"/>
<path d="" fill="#444340" transform="translate(0,0)"/>
<path d="" fill="#373638" transform="translate(0,0)"/>
<path d="" fill="#3D3B39" transform="translate(0,0)"/>
<path d="" fill="#363938" transform="translate(0,0)"/>
<path d="" fill="#383737" transform="translate(0,0)"/>
<path d="" fill="#373636" transform="translate(0,0)"/>
<path d="" fill="#3B3938" transform="translate(0,0)"/>
<path d="" fill="#393533" transform="translate(0,0)"/>
<path d="" fill="#383933" transform="translate(0,0)"/>
<path d="" fill="#3D3E3C" transform="translate(0,0)"/>
<path d="" fill="#383634" transform="translate(0,0)"/>
<path d="" fill="#3C3B38" transform="translate(0,0)"/>
<path d="" fill="#3B3737" transform="translate(0,0)"/>
<path d="" fill="#3B3B3A" transform="translate(0,0)"/>
<path d="" fill="#383837" transform="translate(0,0)"/>
<path d="" fill="#3F3D3D" transform="translate(0,0)"/>
<path d="" fill="#3A3938" transform="translate(0,0)"/>
<path d="" fill="#343130" transform="translate(0,0)"/>
<path d="" fill="#383638" transform="translate(0,0)"/>
<path d="" fill="#373638" transform="translate(0,0)"/>
<path d="" fill="#4B4D4C" transform="translate(0,0)"/>
<path d="" fill="#353133" transform="translate(0,0)"/>
<path d="" fill="#353634" transform="translate(0,0)"/>
<path d="" fill="#373133" transform="translate(0,0)"/>
<path d="" fill="#3A3939" transform="translate(0,0)"/>
<path d="" fill="#343233" transform="translate(0,0)"/>
<path d="" fill="#393936" transform="translate(0,0)"/>
<path d="" fill="#414142" transform="translate(0,0)"/>
<path d="" fill="#363433" transform="translate(0,0)"/>
<path d="" fill="#363433" transform="translate(0,0)"/>
<path d="" fill="#343131" transform="translate(0,0)"/>
<path d="" fill="#3A3737" transform="translate(0,0)"/>
<path d="" fill="#3A383B" transform="translate(0,0)"/>
<path d="" fill="#3A3938" transform="translate(0,0)"/>
<path d="" fill="#3D3C3E" transform="translate(0,0)"/>
<path d="" fill="#2F302E" transform="translate(0,0)"/>
<path d="" fill="#353331" transform="translate(0,0)"/>
<path d="" fill="#333131" transform="translate(0,0)"/>
<path d="" fill="#353332" transform="translate(0,0)"/>
<path d="" fill="#353230" transform="translate(0,0)"/>
<path d="" fill="#31302F" transform="translate(0,0)"/>
<path d="" fill="#2D2C30" transform="translate(0,0)"/>
<path d="" fill="#2E2E2C" transform="translate(0,0)"/>
<path d="" fill="#3B3839" transform="translate(0,0)"/>
<path d="" fill="#3F3B3E" transform="translate(0,0)"/>
<path d="" fill="#2E302D" transform="translate(0,0)"/>
<path d="" fill="#2E2E2C" transform="translate(0,0)"/>
<path d="" fill="#4C4C4C" transform="translate(0,0)"/>
<path d="" fill="#464443" transform="translate(0,0)"/>
<path d="" fill="#373734" transform="translate(0,0)"/>
<path d="" fill="#31312F" transform="translate(0,0)"/>
<path d="" fill="#41403F" transform="translate(0,0)"/>
<path d="" fill="#434542" transform="translate(0,0)"/>
<path d="" fill="#444443" transform="translate(0,0)"/>
<path d="" fill="#454344" transform="translate(0,0)"/>
<path d="" fill="#494846" transform="translate(0,0)"/>
<path d="" fill="#484847" transform="translate(0,0)"/>
<path d="" fill="#454643" transform="translate(0,0)"/>
<path d="" fill="#32322F" transform="translate(0,0)"/>
<path d="" fill="#373736" transform="translate(0,0)"/>
<path d="" fill="#454643" transform="translate(0,0)"/>
<path d="" fill="#444544" transform="translate(0,0)"/>
<path d="" fill="#2D2D2E" transform="translate(0,0)"/>
<path d="" fill="#484544" transform="translate(0,0)"/>
<path d="" fill="#3D3D3B" transform="translate(0,0)"/>
<path d="" fill="#3A3A38" transform="translate(0,0)"/>
<path d="" fill="#363533" transform="translate(0,0)"/>
<path d="" fill="#383637" transform="translate(0,0)"/>
<path d="" fill="#413F3C" transform="translate(0,0)"/>
<path d="" fill="#434442" transform="translate(0,0)"/>
<path d="" fill="#454342" transform="translate(0,0)"/>
<path d="" fill="#424340" transform="translate(0,0)"/>
<path d="" fill="#444543" transform="translate(0,0)"/>
<path d="" fill="#414542" transform="translate(0,0)"/>
<path d="" fill="#434344" transform="translate(0,0)"/>
<path d="" fill="#424140" transform="translate(0,0)"/>
<path d="" fill="#413E40" transform="translate(0,0)"/>
<path d="" fill="#454443" transform="translate(0,0)"/>
<path d="" fill="#48494A" transform="translate(0,0)"/>
<path d="" fill="#4B4545" transform="translate(0,0)"/>
<path d="" fill="#414141" transform="translate(0,0)"/>
<path d="" fill="#393938" transform="translate(0,0)"/>
<path d="" fill="#302E2F" transform="translate(0,0)"/>
<path d="" fill="#312F2F" transform="translate(0,0)"/>
<path d="" fill="#414240" transform="translate(0,0)"/>
<path d="" fill="#42403F" transform="translate(0,0)"/>
<path d="" fill="#444243" transform="translate(0,0)"/>
<path d="" fill="#4C4C4A" transform="translate(0,0)"/>
<path d="" fill="#41403F" transform="translate(0,0)"/>
<path d="" fill="#383939" transform="translate(0,0)"/>
<path d="" fill="#3D3D3D" transform="translate(0,0)"/>
<path d="" fill="#3B3D3A" transform="translate(0,0)"/>
<path d="" fill="#41403E" transform="translate(0,0)"/>
<path d="" fill="#353837" transform="translate(0,0)"/>
<path d="" fill="#2A2828" transform="translate(0,0)"/>
<path d="" fill="#3A3A39" transform="translate(0,0)"/>
<path d="" fill="#393B39" transform="translate(0,0)"/>
<path d="" fill="#373839" transform="translate(0,0)"/>
<path d="" fill="#403F3C" transform="translate(0,0)"/>
<path d="" fill="#3A3936" transform="translate(0,0)"/>
<path d="" fill="#3D3C3A" transform="translate(0,0)"/>
<path d="" fill="#363737" transform="translate(0,0)"/>
<path d="" fill="#393837" transform="translate(0,0)"/>
<path d="" fill="#353532" transform="translate(0,0)"/>
<path d="" fill="#393B36" transform="translate(0,0)"/>
<path d="" fill="#363535" transform="translate(0,0)"/>
<path d="" fill="#353636" transform="translate(0,0)"/>
<path d="" fill="#3B3A37" transform="translate(0,0)"/>
<path d="" fill="#393838" transform="translate(0,0)"/>
<path d="" fill="#2D2D2B" transform="translate(0,0)"/>
<path d="" fill="#373635" transform="translate(0,0)"/>
<path d="" fill="#363737" transform="translate(0,0)"/>
<path d="" fill="#373939" transform="translate(0,0)"/>
<path d="" fill="#373632" transform="translate(0,0)"/>
<path d="" fill="#373A3B" transform="translate(0,0)"/>
<path d="" fill="#2A2B2D" transform="translate(0,0)"/>
<path d="" fill="#363634" transform="translate(0,0)"/>
<path d="" fill="#333431" transform="translate(0,0)"/>
<path d="" fill="#3F3E3E" transform="translate(0,0)"/>
<path d="" fill="#3A3B37" transform="translate(0,0)"/>
<path d="" fill="#262425" transform="translate(0,0)"/>
<path d="" fill="#343631" transform="translate(0,0)"/>
<path d="" fill="#343131" transform="translate(0,0)"/>
<path d="" fill="#3B393A" transform="translate(0,0)"/>
<path d="" fill="#393834" transform="translate(0,0)"/>
<path d="" fill="#323333" transform="translate(0,0)"/>
<path d="" fill="#272626" transform="translate(0,0)"/>
<path d="" fill="#3D393C" transform="translate(0,0)"/>
<path d="" fill="#313430" transform="translate(0,0)"/>
<path d="" fill="#353533" transform="translate(0,0)"/>
<path d="" fill="#363332" transform="translate(0,0)"/>
<path d="" fill="#323230" transform="translate(0,0)"/>
<path d="" fill="#3C393A" transform="translate(0,0)"/>
<path d="" fill="#393839" transform="translate(0,0)"/>
<path d="" fill="#322F2E" transform="translate(0,0)"/>
<path d="" fill="#373734" transform="translate(0,0)"/>
<path d="" fill="#363A36" transform="translate(0,0)"/>
<path d="" fill="#323230" transform="translate(0,0)"/>
<path d="" fill="#252523" transform="translate(0,0)"/>
<path d="" fill="#282528" transform="translate(0,0)"/>
<path d="" fill="#2F2C2B" transform="translate(0,0)"/>
<path d="" fill="#303130" transform="translate(0,0)"/>
<path d="" fill="#373532" transform="translate(0,0)"/>
<path d="" fill="#343431" transform="translate(0,0)"/>
<path d="" fill="#313231" transform="translate(0,0)"/>
<path d="" fill="#353330" transform="translate(0,0)"/>
<path d="" fill="#313230" transform="translate(0,0)"/>
<path d="" fill="#31302E" transform="translate(0,0)"/>
<path d="" fill="#373535" transform="translate(0,0)"/>
<path d="" fill="#2E2C29" transform="translate(0,0)"/>
<path d="" fill="#2E2E2E" transform="translate(0,0)"/>
<path d="" fill="#2C2D2B" transform="translate(0,0)"/>
<path d="" fill="#2F2E2F" transform="translate(0,0)"/>
<path d="" fill="#342F31" transform="translate(0,0)"/>
<path d="" fill="#3A3836" transform="translate(0,0)"/>
<path d="" fill="#363535" transform="translate(0,0)"/>
<path d="" fill="#2E2D29" transform="translate(0,0)"/>
<path d="" fill="#333230" transform="translate(0,0)"/>
<path d="" fill="#302E2F" transform="translate(0,0)"/>
<path d="" fill="#282D2C" transform="translate(0,0)"/>
<path d="" fill="#343130" transform="translate(0,0)"/>
<path d="" fill="#363635" transform="translate(0,0)"/>
<path d="" fill="#2E2C2D" transform="translate(0,0)"/>
<path d="" fill="#353034" transform="translate(0,0)"/>
<path d="" fill="#2E2D2E" transform="translate(0,0)"/>
<path d="" fill="#2D2F30" transform="translate(0,0)"/>
<path d="" fill="#2E2B2C" transform="translate(0,0)"/>
<path d="" fill="#363332" transform="translate(0,0)"/>
<path d="" fill="#2F2F2C" transform="translate(0,0)"/>
<path d="" fill="#2D302D" transform="translate(0,0)"/>
<path d="" fill="#2E2F31" transform="translate(0,0)"/>
<path d="" fill="#2D2D2C" transform="translate(0,0)"/>
<path d="" fill="#2D2F2F" transform="translate(0,0)"/>
<path d="" fill="#2B2C2D" transform="translate(0,0)"/>
<path d="" fill="#2F2D2B" transform="translate(0,0)"/>
<path d="" fill="#333031" transform="translate(0,0)"/>
<path d="" fill="#2C2D2C" transform="translate(0,0)"/>
<path d="" fill="#292526" transform="translate(0,0)"/>
<path d="" fill="#2B2D2A" transform="translate(0,0)"/>
<path d="" fill="#2D2C2B" transform="translate(0,0)"/>
<path d="" fill="#383837" transform="translate(0,0)"/>
<path d="" fill="#252326" transform="translate(0,0)"/>
<path d="" fill="#2C2C2D" transform="translate(0,0)"/>
<path d="" fill="#2C2D2F" transform="translate(0,0)"/>
<path d="" fill="#3F3F3F" transform="translate(0,0)"/>
<path d="" fill="#302E2F" transform="translate(0,0)"/>
<path d="" fill="#2E2C2E" transform="translate(0,0)"/>
<path d="" fill="#282625" transform="translate(0,0)"/>
<path d="" fill="#2C2D2A" transform="translate(0,0)"/>
<path d="" fill="#282B26" transform="translate(0,0)"/>
<path d="" fill="#302E2C" transform="translate(0,0)"/>
<path d="" fill="#2B2B2B" transform="translate(0,0)"/>
<path d="" fill="#2D2D2B" transform="translate(0,0)"/>
<path d="" fill="#2E2E2F" transform="translate(0,0)"/>
<path d="" fill="#2D2929" transform="translate(0,0)"/>
<path d="" fill="#2D2E2C" transform="translate(0,0)"/>
<path d="" fill="#2A2A2A" transform="translate(0,0)"/>
<path d="" fill="#2D2C2D" transform="translate(0,0)"/>
<path d="" fill="#272725" transform="translate(0,0)"/>
<path d="" fill="#2C2B2C" transform="translate(0,0)"/>
<path d="" fill="#29282A" transform="translate(0,0)"/>
<path d="" fill="#2C2B29" transform="translate(0,0)"/>
<path d="" fill="#2F2D2D" transform="translate(0,0)"/>
<path d="" fill="#252421" transform="translate(0,0)"/>
<path d="" fill="#262527" transform="translate(0,0)"/>
<path d="" fill="#282A2B" transform="translate(0,0)"/>
<path d="" fill="#2E2D2B" transform="translate(0,0)"/>
<path d="" fill="#302D2E" transform="translate(0,0)"/>
<path d="" fill="#2D2D30" transform="translate(0,0)"/>
<path d="" fill="#302C2C" transform="translate(0,0)"/>
<path d="" fill="#2A2428" transform="translate(0,0)"/>
<path d="" fill="#262625" transform="translate(0,0)"/>
<path d="" fill="#2F2E2D" transform="translate(0,0)"/>
<path d="" fill="#2C2B2C" transform="translate(0,0)"/>
<path d="" fill="#282825" transform="translate(0,0)"/>
<path d="" fill="#282627" transform="translate(0,0)"/>
<path d="" fill="#2A2929" transform="translate(0,0)"/>
<path d="" fill="#2C2B2C" transform="translate(0,0)"/>
<path d="" fill="#252526" transform="translate(0,0)"/>
<path d="" fill="#2A2B29" transform="translate(0,0)"/>
<path d="" fill="#2F2F2E" transform="translate(0,0)"/>
<path d="" fill="#2D2C2D" transform="translate(0,0)"/>
<path d="" fill="#333232" transform="translate(0,0)"/>
<path d="" fill="#292C2D" transform="translate(0,0)"/>
<path d="" fill="#282926" transform="translate(0,0)"/>
<path d="" fill="#292A2A" transform="translate(0,0)"/>
<path d="" fill="#555253" transform="translate(0,0)"/>
<path d="" fill="#2A2829" transform="translate(0,0)"/>
<path d="" fill="#373633" transform="translate(0,0)"/>
<path d="" fill="#353233" transform="translate(0,0)"/>
<path d="" fill="#282728" transform="translate(0,0)"/>
<path d="" fill="#322F30" transform="translate(0,0)"/>
<path d="" fill="#2B2726" transform="translate(0,0)"/>
<path d="" fill="#2B2B2E" transform="translate(0,0)"/>
<path d="" fill="#353535" transform="translate(0,0)"/>
<path d="" fill="#32312F" transform="translate(0,0)"/>
<path d="" fill="#2C2A29" transform="translate(0,0)"/>
<path d="" fill="#2D2C2E" transform="translate(0,0)"/>
<path d="" fill="#343534" transform="translate(0,0)"/>
<path d="" fill="#282A27" transform="translate(0,0)"/>
<path d="" fill="#2F2D2F" transform="translate(0,0)"/>
<path d="" fill="#2E2F2D" transform="translate(0,0)"/>
<path d="" fill="#2D2A2B" transform="translate(0,0)"/>
<path d="" fill="#282628" transform="translate(0,0)"/>
<path d="" fill="#2D2C2B" transform="translate(0,0)"/>
<path d="" fill="#3F3F3F" transform="translate(0,0)"/>
<path d="" fill="#333130" transform="translate(0,0)"/>
<path d="" fill="#2D2C28" transform="translate(0,0)"/>
<path d="" fill="#2C2B2A" transform="translate(0,0)"/>
<path d="" fill="#2C2D2C" transform="translate(0,0)"/>
<path d="" fill="#282929" transform="translate(0,0)"/>
<path d="" fill="#2B2B2E" transform="translate(0,0)"/>
<path d="" fill="#2D2D2A" transform="translate(0,0)"/>
<path d="" fill="#313232" transform="translate(0,0)"/>
<path d="" fill="#333531" transform="translate(0,0)"/>
<path d="" fill="#313332" transform="translate(0,0)"/>
<path d="" fill="#2E2E2B" transform="translate(0,0)"/>
<path d="" fill="#2C2B2D" transform="translate(0,0)"/>
<path d="" fill="#282729" transform="translate(0,0)"/>
<path d="" fill="#3F3E3E" transform="translate(0,0)"/>
<path d="" fill="#2D2D2A" transform="translate(0,0)"/>
<path d="" fill="#302F2D" transform="translate(0,0)"/>
<path d="" fill="#282B2C" transform="translate(0,0)"/>
<path d="" fill="#333431" transform="translate(0,0)"/>
<path d="" fill="#313230" transform="translate(0,0)"/>
<path d="" fill="#322F2E" transform="translate(0,0)"/>
<path d="" fill="#2A2829" transform="translate(0,0)"/>
<path d="" fill="#2F3230" transform="translate(0,0)"/>
<path d="" fill="#302E2C" transform="translate(0,0)"/>
<path d="" fill="#2E2D2C" transform="translate(0,0)"/>
<path d="" fill="#282725" transform="translate(0,0)"/>
<path d="" fill="#2E2D2E" transform="translate(0,0)"/>
<path d="" fill="#2C2A2C" transform="translate(0,0)"/>
<path d="" fill="#282727" transform="translate(0,0)"/>
<path d="" fill="#474948" transform="translate(0,0)"/>
<path d="" fill="#2F3030" transform="translate(0,0)"/>
<path d="" fill="#302E2F" transform="translate(0,0)"/>
<path d="" fill="#2C2A2A" transform="translate(0,0)"/>
<path d="" fill="#302F2F" transform="translate(0,0)"/>
<path d="" fill="#2E2F2E" transform="translate(0,0)"/>
<path d="" fill="#292B2A" transform="translate(0,0)"/>
<path d="" fill="#2F3130" transform="translate(0,0)"/>
<path d="" fill="#343130" transform="translate(0,0)"/>
<path d="" fill="#333435" transform="translate(0,0)"/>
<path d="" fill="#2F312D" transform="translate(0,0)"/>
<path d="" fill="#292A29" transform="translate(0,0)"/>
<path d="" fill="#363235" transform="translate(0,0)"/>
<path d="" fill="#3C3D3A" transform="translate(0,0)"/>
<path d="" fill="#333332" transform="translate(0,0)"/>
<path d="" fill="#2A2A29" transform="translate(0,0)"/>
<path d="" fill="#343435" transform="translate(0,0)"/>
<path d="" fill="#323132" transform="translate(0,0)"/>
<path d="" fill="#2A2829" transform="translate(0,0)"/>
<path d="" fill="#343432" transform="translate(0,0)"/>
<path d="" fill="#414040" transform="translate(0,0)"/>
<path d="" fill="#373335" transform="translate(0,0)"/>
<path d="" fill="#353532" transform="translate(0,0)"/>
<path d="" fill="#2E2D2D" transform="translate(0,0)"/>
<path d="" fill="#2D2B2A" transform="translate(0,0)"/>
<path d="" fill="#353434" transform="translate(0,0)"/>
<path d="" fill="#3B3938" transform="translate(0,0)"/>
<path d="" fill="#414242" transform="translate(0,0)"/>
<path d="" fill="#484949" transform="translate(0,0)"/>
<path d="" fill="#373636" transform="translate(0,0)"/>
<path d="" fill="#414240" transform="translate(0,0)"/>
<path d="" fill="#343031" transform="translate(0,0)"/>
<path d="" fill="#2E2D2F" transform="translate(0,0)"/>
<path d="" fill="#434642" transform="translate(0,0)"/>
<path d="" fill="#40403D" transform="translate(0,0)"/>
<path d="" fill="#3D403D" transform="translate(0,0)"/>
<path d="" fill="#3E403F" transform="translate(0,0)"/>
<path d="" fill="#3B3938" transform="translate(0,0)"/>
<path d="" fill="#3E3D3D" transform="translate(0,0)"/>
<path d="" fill="#343434" transform="translate(0,0)"/>
<path d="" fill="#313031" transform="translate(0,0)"/>
<path d="" fill="#2F2D2D" transform="translate(0,0)"/>
<path d="" fill="#2E312E" transform="translate(0,0)"/>
<path d="" fill="#323231" transform="translate(0,0)"/>
<path d="" fill="#2E2E30" transform="translate(0,0)"/>
<path d="" fill="#323231" transform="translate(0,0)"/>
<path d="" fill="#323032" transform="translate(0,0)"/>
<path d="" fill="#313130" transform="translate(0,0)"/>
<path d="" fill="#312E31" transform="translate(0,0)"/>
<path d="" fill="#343333" transform="translate(0,0)"/>
<path d="" fill="#393A39" transform="translate(0,0)"/>
<path d="" fill="#3B3B3D" transform="translate(0,0)"/>
<path d="" fill="#42423F" transform="translate(0,0)"/>
<path d="" fill="#46454A" transform="translate(0,0)"/>
<path d="" fill="#4C4D4B" transform="translate(0,0)"/>
<path d="" fill="#4C4E4A" transform="translate(0,0)"/>
<path d="" fill="#4E4A4A" transform="translate(0,0)"/>
<path d="" fill="#4F4D4E" transform="translate(0,0)"/>
<path d="" fill="#4A4D4E" transform="translate(0,0)"/>
<path d="" fill="#454444" transform="translate(0,0)"/>
<path d="" fill="#3B3A3C" transform="translate(0,0)"/>
<path d="" fill="#3C3C3A" transform="translate(0,0)"/>
<path d="" fill="#3B3C3A" transform="translate(0,0)"/>
<path d="" fill="#3C3E3B" transform="translate(0,0)"/>
<path d="" fill="#323233" transform="translate(0,0)"/>
<path d="" fill="#423F40" transform="translate(0,0)"/>
<path d="" fill="#282828" transform="translate(0,0)"/>
<path d="" fill="#2F2E2D" transform="translate(0,0)"/>
<path d="" fill="#2A2929" transform="translate(0,0)"/>
<path d="" fill="#282625" transform="translate(0,0)"/>
<path d="" fill="#272726" transform="translate(0,0)"/>
<path d="" fill="#282928" transform="translate(0,0)"/>
<path d="" fill="#383A37" transform="translate(0,0)"/>
<path d="" fill="#3B3A3B" transform="translate(0,0)"/>
<path d="" fill="#3B3B3A" transform="translate(0,0)"/>
<path d="" fill="#3B413F" transform="translate(0,0)"/>
<path d="" fill="#373836" transform="translate(0,0)"/>
<path d="" fill="#2E2C2A" transform="translate(0,0)"/>
<path d="" fill="#201D1D" transform="translate(0,0)"/>
<path d="" fill="#1E1A1A" transform="translate(0,0)"/>
<path d="" fill="#1D1C19" transform="translate(0,0)"/>
<path d="" fill="#1C1A1D" transform="translate(0,0)"/>
<path d="" fill="#212122" transform="translate(0,0)"/>
<path d="" fill="#20211E" transform="translate(0,0)"/>
<path d="" fill="#151413" transform="translate(0,0)"/>
<path d="" fill="#161413" transform="translate(0,0)"/>
<path d="" fill="#171718" transform="translate(0,0)"/>
<path d="" fill="#191413" transform="translate(0,0)"/>
<path d="" fill="#161416" transform="translate(0,0)"/>
<path d="" fill="#212222" transform="translate(0,0)"/>
<path d="" fill="#242322" transform="translate(0,0)"/>
<path d="" fill="#161413" transform="translate(0,0)"/>
<path d="" fill="#141512" transform="translate(0,0)"/>
<path d="" fill="#151415" transform="translate(0,0)"/>
<path d="" fill="#131413" transform="translate(0,0)"/>
<path d="" fill="#191513" transform="translate(0,0)"/>
<path d="" fill="#2C2B2A" transform="translate(0,0)"/>
<path d="" fill="#282B28" transform="translate(0,0)"/>
<path d="" fill="#161615" transform="translate(0,0)"/>
<path d="" fill="#20201F" transform="translate(0,0)"/>
<path d="" fill="#585759" transform="translate(0,0)"/>
<path d="" fill="#2F2F2D" transform="translate(0,0)"/>
<path d="" fill="#575655" transform="translate(0,0)"/>
<path d="" fill="#242422" transform="translate(0,0)"/>
<path d="" fill="#2E2D2B" transform="translate(0,0)"/>
<path d="" fill="#242422" transform="translate(0,0)"/>
<path d="" fill="#595859" transform="translate(0,0)"/>
<path d="" fill="#242526" transform="translate(0,0)"/>
<path d="" fill="#28262A" transform="translate(0,0)"/>
<path d="" fill="#262625" transform="translate(0,0)"/>
<path d="" fill="#292A27" transform="translate(0,0)"/>
<path d="" fill="#272829" transform="translate(0,0)"/>
<path d="" fill="#1B1F1E" transform="translate(0,0)"/>
<path d="" fill="#1B1C1A" transform="translate(0,0)"/>
<path d="" fill="#151617" transform="translate(0,0)"/>
<path d="" fill="#201E1E" transform="translate(0,0)"/>
<path d="" fill="#1F1F20" transform="translate(0,0)"/>
<path d="" fill="#211F20" transform="translate(0,0)"/>
<path d="" fill="#1F2022" transform="translate(0,0)"/>
<path d="" fill="#22201F" transform="translate(0,0)"/>
<path d="" fill="#2C2D2C" transform="translate(0,0)"/>
<path d="" fill="#1C1C1B" transform="translate(0,0)"/>
<path d="" fill="#1F201F" transform="translate(0,0)"/>
<path d="" fill="#2E2D2E" transform="translate(0,0)"/>
<path d="" fill="#1F1F1E" transform="translate(0,0)"/>
<path d="" fill="#2B2C2A" transform="translate(0,0)"/>
<path d="" fill="#212121" transform="translate(0,0)"/>
<path d="" fill="#272625" transform="translate(0,0)"/>
<path d="" fill="#252624" transform="translate(0,0)"/>
<path d="" fill="#21201F" transform="translate(0,0)"/>
<path d="" fill="#221D1F" transform="translate(0,0)"/>
<path d="" fill="#1B1C1D" transform="translate(0,0)"/>
<path d="" fill="#201F1D" transform="translate(0,0)"/>
<path d="" fill="#212420" transform="translate(0,0)"/>
<path d="" fill="#1C1D1C" transform="translate(0,0)"/>
<path d="" fill="#282728" transform="translate(0,0)"/>
<path d="" fill="#191B1A" transform="translate(0,0)"/>
<path d="" fill="#1D1A1B" transform="translate(0,0)"/>
<path d="" fill="#292426" transform="translate(0,0)"/>
<path d="" fill="#4E4F4F" transform="translate(0,0)"/>
<path d="" fill="#202220" transform="translate(0,0)"/>
<path d="" fill="#4C4C4C" transform="translate(0,0)"/>
<path d="" fill="#1B1916" transform="translate(0,0)"/>
<path d="" fill="#1B1C19" transform="translate(0,0)"/>
<path d="" fill="#1F1E1C" transform="translate(0,0)"/>
<path d="" fill="#22231F" transform="translate(0,0)"/>
<path d="" fill="#171614" transform="translate(0,0)"/>
<path d="" fill="#131311" transform="translate(0,0)"/>
<path d="" fill="#262525" transform="translate(0,0)"/>
<path d="" fill="#1D201F" transform="translate(0,0)"/>
<path d="" fill="#474745" transform="translate(0,0)"/>
<path d="" fill="#1F1E1E" transform="translate(0,0)"/>
<path d="" fill="#232322" transform="translate(0,0)"/>
<path d="" fill="#1E1D1F" transform="translate(0,0)"/>
<path d="" fill="#141513" transform="translate(0,0)"/>
<path d="" fill="#141514" transform="translate(0,0)"/>
<path d="" fill="#1B191A" transform="translate(0,0)"/>
<path d="" fill="#191B1B" transform="translate(0,0)"/>
<path d="" fill="#1C1B18" transform="translate(0,0)"/>
<path d="" fill="#1D201E" transform="translate(0,0)"/>
<path d="" fill="#1A1918" transform="translate(0,0)"/>
<path d="" fill="#181915" transform="translate(0,0)"/>
<path d="" fill="#201B20" transform="translate(0,0)"/>
<path d="" fill="#1C1D1B" transform="translate(0,0)"/>
<path d="" fill="#1C1B1D" transform="translate(0,0)"/>
<path d="" fill="#1B1B1C" transform="translate(0,0)"/>
<path d="" fill="#191819" transform="translate(0,0)"/>
<path d="" fill="#252627" transform="translate(0,0)"/>
<path d="" fill="#161919" transform="translate(0,0)"/>
<path d="" fill="#171819" transform="translate(0,0)"/>
<path d="" fill="#494849" transform="translate(0,0)"/>
<path d="" fill="#1A171A" transform="translate(0,0)"/>
<path d="" fill="#1C1B1A" transform="translate(0,0)"/>
<path d="" fill="#1C1D1A" transform="translate(0,0)"/>
<path d="" fill="#131315" transform="translate(0,0)"/>
<path d="" fill="#131312" transform="translate(0,0)"/>
<path d="" fill="#272626" transform="translate(0,0)"/>
<path d="" fill="#403F40" transform="translate(0,0)"/>
<path d="" fill="#1D1D1D" transform="translate(0,0)"/>
<path d="" fill="#262625" transform="translate(0,0)"/>
<path d="" fill="#1E221E" transform="translate(0,0)"/>
<path d="" fill="#1E1D1D" transform="translate(0,0)"/>
<path d="" fill="#1D201F" transform="translate(0,0)"/>
<path d="" fill="#171517" transform="translate(0,0)"/>
<path d="" fill="#151515" transform="translate(0,0)"/>
<path d="" fill="#171816" transform="translate(0,0)"/>
<path d="" fill="#151413" transform="translate(0,0)"/>
<path d="" fill="#131410" transform="translate(0,0)"/>
<path d="" fill="#171615" transform="translate(0,0)"/>
<path d="" fill="#161614" transform="translate(0,0)"/>
<path d="" fill="#121011" transform="translate(0,0)"/>
<path d="" fill="#0E0F0F" transform="translate(0,0)"/>
<path d="" fill="#222321" transform="translate(0,0)"/>
<path d="" fill="#221E20" transform="translate(0,0)"/>
<path d="" fill="#212121" transform="translate(0,0)"/>
<path d="" fill="#212021" transform="translate(0,0)"/>
<path d="" fill="#232121" transform="translate(0,0)"/>
<path d="" fill="#272726" transform="translate(0,0)"/>
<path d="" fill="#242623" transform="translate(0,0)"/>
<path d="" fill="#151716" transform="translate(0,0)"/>
<path d="" fill="#222321" transform="translate(0,0)"/>
<path d="" fill="#1D1C1B" transform="translate(0,0)"/>
<path d="" fill="#1B1C1C" transform="translate(0,0)"/>
<path d="" fill="#181819" transform="translate(0,0)"/>
<path d="" fill="#232321" transform="translate(0,0)"/>
<path d="" fill="#4E4D4E" transform="translate(0,0)"/>
<path d="" fill="#444343" transform="translate(0,0)"/>
<path d="" fill="#454445" transform="translate(0,0)"/>
<path d="" fill="#221E1F" transform="translate(0,0)"/>
<path d="" fill="#191A1A" transform="translate(0,0)"/>
<path d="" fill="#141515" transform="translate(0,0)"/>
<path d="" fill="#151415" transform="translate(0,0)"/>
<path d="" fill="#444444" transform="translate(0,0)"/>
<path d="" fill="#242525" transform="translate(0,0)"/>
<path d="" fill="#191718" transform="translate(0,0)"/>
<path d="" fill="#252628" transform="translate(0,0)"/>
<path d="" fill="#20201D" transform="translate(0,0)"/>
<path d="" fill="#20201E" transform="translate(0,0)"/>
<path d="" fill="#141815" transform="translate(0,0)"/>
<path d="" fill="#151716" transform="translate(0,0)"/>
<path d="" fill="#1E1C1D" transform="translate(0,0)"/>
<path d="" fill="#222423" transform="translate(0,0)"/>
<path d="" fill="#504F50" transform="translate(0,0)"/>
<path d="" fill="#191B1B" transform="translate(0,0)"/>
<path d="" fill="#1B1D1B" transform="translate(0,0)"/>
<path d="" fill="#1A1A1B" transform="translate(0,0)"/>
<path d="" fill="#1E1F1D" transform="translate(0,0)"/>
<path d="" fill="#1F1D1D" transform="translate(0,0)"/>
<path d="" fill="#4C4F4F" transform="translate(0,0)"/>
<path d="" fill="#1F1F1F" transform="translate(0,0)"/>
<path d="" fill="#212021" transform="translate(0,0)"/>
<path d="" fill="#1F201E" transform="translate(0,0)"/>
<path d="" fill="#1F1F1F" transform="translate(0,0)"/>
<path d="" fill="#1C1E1A" transform="translate(0,0)"/>
<path d="" fill="#1D1E1D" transform="translate(0,0)"/>
<path d="" fill="#1A1B1A" transform="translate(0,0)"/>
<path d="" fill="#1B1B1E" transform="translate(0,0)"/>
<path d="" fill="#1F1F1A" transform="translate(0,0)"/>
<path d="" fill="#4A494A" transform="translate(0,0)"/>
<path d="" fill="#1B1C1B" transform="translate(0,0)"/>
<path d="" fill="#221D21" transform="translate(0,0)"/>
<path d="" fill="#212121" transform="translate(0,0)"/>
<path d="" fill="#1F2120" transform="translate(0,0)"/>
<path d="" fill="#21201F" transform="translate(0,0)"/>
<path d="" fill="#1E1F1F" transform="translate(0,0)"/>
<path d="" fill="#1D1C1C" transform="translate(0,0)"/>
<path d="" fill="#262423" transform="translate(0,0)"/>
<path d="" fill="#1E2023" transform="translate(0,0)"/>
<path d="" fill="#1F1E1E" transform="translate(0,0)"/>
<path d="" fill="#252424" transform="translate(0,0)"/>
<path d="" fill="#282C27" transform="translate(0,0)"/>
<path d="" fill="#262223" transform="translate(0,0)"/>
<path d="" fill="#323233" transform="translate(0,0)"/>
<path d="" fill="#292828" transform="translate(0,0)"/>
<path d="" fill="#262826" transform="translate(0,0)"/>
<path d="" fill="#272624" transform="translate(0,0)"/>
<path d="" fill="#292828" transform="translate(0,0)"/>
<path d="" fill="#2D2F2D" transform="translate(0,0)"/>
<path d="" fill="#292A2A" transform="translate(0,0)"/>
<path d="" fill="#2D2D2B" transform="translate(0,0)"/>
<path d="" fill="#353735" transform="translate(0,0)"/>
<path d="" fill="#2F3532" transform="translate(0,0)"/>
<path d="" fill="#393836" transform="translate(0,0)"/>
<path d="" fill="#342F34" transform="translate(0,0)"/>
<path d="" fill="#343533" transform="translate(0,0)"/>
<path d="" fill="#333331" transform="translate(0,0)"/>
<path d="" fill="#535254" transform="translate(0,0)"/>
<path d="" fill="#4A4B49" transform="translate(0,0)"/>
<path d="" fill="#3E3E40" transform="translate(0,0)"/>
<path d="" fill="#4F4F4E" transform="translate(0,0)"/>
<path d="" fill="#4B4A4C" transform="translate(0,0)"/>
<path d="" fill="#484A49" transform="translate(0,0)"/>
<path d="" fill="#4D4E4C" transform="translate(0,0)"/>
<path d="" fill="#4E4F4E" transform="translate(0,0)"/>
<path d="" fill="#4E4D50" transform="translate(0,0)"/>
<path d="" fill="#4D4C4E" transform="translate(0,0)"/>
<path d="" fill="#4F5150" transform="translate(0,0)"/>
<path d="" fill="#505051" transform="translate(0,0)"/>
<path d="" fill="#4B4C4B" transform="translate(0,0)"/>
<path d="" fill="#504F4F" transform="translate(0,0)"/>
<path d="" fill="#4F4D4B" transform="translate(0,0)"/>
<path d="" fill="#4F504E" transform="translate(0,0)"/>
<path d="" fill="#4F4E50" transform="translate(0,0)"/>
<path d="" fill="#515252" transform="translate(0,0)"/>
</svg>
